<?xml version="1.0" encoding="UTF-8"?>
<svg id="Layer_1" data-name="Layer 1" xmlns="http://www.w3.org/2000/svg" viewBox="0 0 2200.17 2245.32">
  <defs>
    <style>
      .cls-1 {
        fill: none;
      }

      .cls-2 {
        fill: #c5a114;
      }
    </style>
  </defs>
  <polygon class="cls-1" points="1899.38 1162.93 2007.14 1272.7 2024.04 1255.54 1916.28 1145.77 1899.38 1162.93"/>
  <polygon class="cls-1" points="1873.93 1188.76 1981.69 1298.54 1998.6 1281.37 1890.83 1171.6 1873.93 1188.76"/>
  <polygon class="cls-1" points="1924.82 1137.1 2032.58 1246.87 2048.23 1230.99 1939.85 1121.83 1924.82 1137.1"/>
  <polygon class="cls-1" points="2056.97 1222.11 2072.82 1206.02 1974.2 1105.56 1978.09 1101.74 1977.89 1101.54 2097.89 981.55 2087.97 971.45 1949.21 1112.34 2056.97 1222.11"/>
  <polygon class="cls-1" points="1113.4 321.22 1000.81 206.53 983.9 223.68 1096.49 338.37 1113.4 321.22"/>
  <polygon class="cls-1" points="1848.49 1214.6 1956.25 1324.37 1973.15 1307.21 1865.39 1197.43 1848.49 1214.6"/>
  <polygon class="cls-1" points="1129.15 305.24 1015.92 191.2 1009.35 197.86 1121.94 312.55 1129.15 305.24"/>
  <polygon class="cls-1" points="1670.38 1395.43 1778.14 1505.21 1795.04 1488.04 1687.28 1378.27 1670.38 1395.43"/>
  <polygon class="cls-1" points="1721.26 1343.77 1829.03 1453.54 1845.93 1436.38 1738.17 1326.6 1721.26 1343.77"/>
  <polygon class="cls-1" points="1823.04 1240.43 1930.8 1350.21 1947.71 1333.04 1839.95 1223.27 1823.04 1240.43"/>
  <polygon class="cls-1" points="1087.94 347.04 975.35 232.35 958.44 249.5 1071.03 364.19 1087.94 347.04"/>
  <polygon class="cls-1" points="1695.82 1369.6 1803.58 1479.37 1820.49 1462.21 1712.72 1352.44 1695.82 1369.6"/>
  <polygon class="cls-1" points="1746.71 1317.93 1854.47 1427.71 1871.38 1410.54 1763.61 1300.77 1746.71 1317.93"/>
  <polygon class="cls-1" points="1797.6 1266.26 1905.36 1376.04 1922.26 1358.88 1814.5 1249.1 1797.6 1266.26"/>
  <polygon class="cls-1" points="1772.16 1292.1 1879.92 1401.87 1896.82 1384.71 1789.06 1274.94 1772.16 1292.1"/>
  <polygon class="cls-1" points="935.2 501.96 822.61 387.27 805.7 404.43 918.29 519.12 935.2 501.96"/>
  <polygon class="cls-1" points="884.29 553.61 771.7 438.91 754.79 456.07 867.38 570.76 884.29 553.61"/>
  <polygon class="cls-1" points="720.78 490.54 817.76 589.29 806.14 589.29 806.14 611.86 703.86 507.69 720.78 490.54"/>
  <polygon class="cls-1" points="833.4 605.23 818.31 620.56 818.31 601.46 829.69 601.46 833.4 605.23"/>
  <polygon class="cls-1" points="858.83 579.43 849.1 589.29 834.74 589.29 729.35 481.89 746.27 464.74 858.83 579.43"/>
  <polygon class="cls-1" points="731.55 708.53 618.96 593.84 602.05 610.99 714.64 725.68 731.55 708.53"/>
  <polygon class="cls-1" points="1062.48 372.86 949.89 258.17 932.98 275.32 1045.57 390.01 1062.48 372.86"/>
  <polygon class="cls-1" points="782.46 656.89 669.87 542.2 652.96 559.35 765.55 674.04 782.46 656.89"/>
  <polygon class="cls-1" points="757 682.71 644.41 568.02 627.5 585.17 740.09 699.86 757 682.71"/>
  <polygon class="cls-1" points="986.11 450.32 873.52 335.63 856.61 352.78 969.2 467.48 986.11 450.32"/>
  <polygon class="cls-1" points="706.09 734.35 593.5 619.66 576.59 636.81 689.18 751.51 706.09 734.35"/>
  <polygon class="cls-1" points="1037.03 398.68 924.44 283.99 907.53 301.14 1020.11 415.83 1037.03 398.68"/>
  <polygon class="cls-1" points="1011.57 424.5 898.98 309.81 882.07 326.96 994.66 441.65 1011.57 424.5"/>
  <polygon class="cls-1" points="960.66 476.15 848.07 361.45 831.16 378.6 943.75 493.29 960.66 476.15"/>
  <polygon class="cls-1" points="1644.93 1421.27 1752.7 1531.04 1769.6 1513.88 1661.84 1404.1 1644.93 1421.27"/>
  <polygon class="cls-1" points="909.74 527.79 797.15 413.1 780.24 430.25 892.83 544.94 909.74 527.79"/>
  <polygon class="cls-1" points="1136.05 1937.94 1243.81 2047.71 1260.71 2030.55 1152.96 1920.78 1136.05 1937.94"/>
  <polygon class="cls-1" points="1237.83 1834.61 1345.59 1944.38 1362.49 1927.22 1254.73 1817.44 1237.83 1834.61"/>
  <polygon class="cls-1" points="1082.9 2188.21 1094.15 2199.67 1210.19 2081.84 1199.26 2070.7 1082.9 2188.21"/>
  <polygon class="cls-1" points="1173.85 2044.83 1057.5 2162.33 1074.37 2179.52 1190.72 2062.01 1173.85 2044.83"/>
  <polygon class="cls-1" points="1161.49 1912.11 1269.25 2021.88 1286.16 2004.72 1178.4 1894.94 1161.49 1912.11"/>
  <polygon class="cls-1" points="1212.38 1860.44 1320.14 1970.21 1337.05 1953.05 1229.29 1843.28 1212.38 1860.44"/>
  <polygon class="cls-1" points="1186.94 1886.27 1294.7 1996.04 1311.6 1978.88 1203.84 1869.11 1186.94 1886.27"/>
  <polygon class="cls-1" points="1110.97 1963.4 1123.09 1975.74 1134.83 1963.88 1143.48 1972.45 1131.62 1984.43 1148.49 2001.61 1160.82 1989.15 1169.47 1997.72 1157.02 2010.3 1173.89 2027.49 1186.82 2014.42 1195.48 2022.99 1182.42 2036.18 1199.29 2053.36 1212.82 2039.7 1221.47 2048.26 1207.82 2062.05 1218.73 2073.17 1235.27 2056.38 1127.51 1946.61 1110.97 1963.4"/>
  <polygon class="cls-1" points="2146 1131.72 2056.3 1040.34 2040.31 1056.34 2130.13 1147.83 2146 1131.72"/>
  <polygon class="cls-1" points="2170.85 1106.48 2081.34 1015.3 2064.9 1031.74 2154.54 1123.05 2170.85 1106.48"/>
  <polygon class="cls-1" points="2121.59 1156.5 2031.7 1064.94 2015.74 1080.9 2105.74 1172.59 2121.59 1156.5"/>
  <polygon class="cls-1" points="1619.49 1447.1 1727.25 1556.88 1744.16 1539.71 1636.39 1429.94 1619.49 1447.1"/>
  <polygon class="cls-1" points="1123.05 1993.08 1006.7 2110.58 1023.57 2127.77 1139.92 2010.26 1123.05 1993.08"/>
  <polygon class="cls-1" points="1102.43 1972.07 986.39 2089.89 998.17 2101.89 1114.52 1984.39 1102.43 1972.07"/>
  <polygon class="cls-1" points="1148.45 2018.95 1032.1 2136.46 1048.97 2153.64 1165.32 2036.14 1148.45 2018.95"/>
  <polygon class="cls-1" points="2097.2 1181.26 2007.13 1089.51 1991.17 1105.48 2081.36 1197.35 2097.2 1181.26"/>
  <polygon class="cls-1" points="1492.27 1576.27 1600.03 1686.04 1616.94 1668.88 1509.17 1559.1 1492.27 1576.27"/>
  <polygon class="cls-1" points="1466.82 1602.1 1574.59 1711.88 1591.49 1694.71 1483.73 1584.94 1466.82 1602.1"/>
  <polygon class="cls-1" points="1517.71 1550.43 1625.48 1660.21 1642.38 1643.04 1534.62 1533.27 1517.71 1550.43"/>
  <polygon class="cls-1" points="1263.27 1808.77 1371.03 1918.55 1387.94 1901.38 1280.18 1791.61 1263.27 1808.77"/>
  <polygon class="cls-1" points="1594.04 1472.93 1701.81 1582.71 1718.71 1565.55 1610.95 1455.77 1594.04 1472.93"/>
  <polygon class="cls-1" points="1566.04 1720.52 1549.12 1737.68 1447.76 1634.43 1447.76 1621.41 1458.28 1610.76 1566.04 1720.52"/>
  <polygon class="cls-1" points="1568.6 1498.77 1676.36 1608.54 1693.27 1591.38 1585.5 1481.61 1568.6 1498.77"/>
  <polygon class="cls-1" points="1543.16 1524.6 1650.92 1634.37 1667.82 1617.21 1560.06 1507.44 1543.16 1524.6"/>
  <polygon class="cls-1" points="1339.6 1731.27 1447.36 1841.04 1464.27 1823.88 1356.51 1714.11 1339.6 1731.27"/>
  <polygon class="cls-1" points="1314.16 1757.1 1421.92 1866.88 1438.82 1849.71 1331.06 1739.94 1314.16 1757.1"/>
  <polygon class="cls-1" points="1288.72 1782.94 1396.48 1892.71 1413.38 1875.55 1305.62 1765.77 1288.72 1782.94"/>
  <polygon class="cls-1" points="1435.59 1642.76 1426.76 1642.76 1432.85 1636.62 1435.59 1639.42 1435.59 1642.76"/>
  <polygon class="cls-1" points="1540.6 1746.38 1523.69 1763.54 1417.09 1654.93 1447.76 1654.93 1447.76 1651.83 1540.6 1746.38"/>
  <polygon class="cls-1" points="1390.49 1679.6 1498.25 1789.38 1515.15 1772.22 1407.4 1662.44 1390.49 1679.6"/>
  <polygon class="cls-1" points="1365.05 1705.44 1472.81 1815.21 1489.71 1798.05 1381.95 1688.27 1365.05 1705.44"/>
  <polygon class="cls-1" points="423.84 1280.81 307.04 1397.85 323.91 1415.04 440.72 1298 423.84 1280.81"/>
  <polygon class="cls-1" points="779.43 1643.04 662.62 1760.08 679.5 1777.27 796.31 1660.23 779.43 1643.04"/>
  <polygon class="cls-1" points="804.83 1668.91 688.02 1785.95 704.9 1803.14 821.71 1686.1 804.83 1668.91"/>
  <polygon class="cls-1" points="855.63 1720.66 738.82 1837.7 755.69 1854.89 872.51 1737.85 855.63 1720.66"/>
  <polygon class="cls-1" points="906.43 1772.41 789.62 1889.45 806.49 1906.63 923.3 1789.6 906.43 1772.41"/>
  <polygon class="cls-1" points="881.03 1746.53 764.22 1863.57 781.09 1880.76 897.9 1763.72 881.03 1746.53"/>
  <polygon class="cls-1" points="830.23 1694.79 713.42 1811.82 730.3 1829.02 847.11 1711.98 830.23 1694.79"/>
  <polygon class="cls-1" points="652.44 1513.67 535.63 1630.71 552.5 1647.9 669.31 1530.86 652.44 1513.67"/>
  <polygon class="cls-1" points="627.04 1487.8 510.23 1604.84 527.11 1622.03 643.91 1504.99 627.04 1487.8"/>
  <polygon class="cls-1" points="601.64 1461.93 484.83 1578.96 501.7 1596.15 618.51 1479.12 601.64 1461.93"/>
  <polygon class="cls-1" points="754.03 1617.17 637.23 1734.21 654.1 1751.39 770.91 1634.36 754.03 1617.17"/>
  <polygon class="cls-1" points="728.64 1591.3 611.82 1708.33 628.7 1725.52 745.51 1608.48 728.64 1591.3"/>
  <polygon class="cls-1" points="677.84 1539.55 561.03 1656.58 577.9 1673.78 694.71 1556.74 677.84 1539.55"/>
  <polygon class="cls-1" points="703.24 1565.42 586.43 1682.46 603.3 1699.65 720.11 1582.61 703.24 1565.42"/>
  <polygon class="cls-1" points="1058.82 1927.65 942.01 2044.69 958.89 2061.88 1075.7 1944.84 1058.82 1927.65"/>
  <polygon class="cls-1" points="1918.61 1083.16 1932.5 1097.15 1933.42 1096.25 1940.67 1103.65 2079.44 962.76 2059.49 942.43 1918.61 1083.16"/>
  <polygon class="cls-1" points="967.41 2070.56 977.86 2081.2 1093.9 1963.38 1084.22 1953.52 967.41 2070.56"/>
  <polygon class="cls-1" points="931.83 1798.28 815.02 1915.32 831.89 1932.51 948.7 1815.47 931.83 1798.28"/>
  <polygon class="cls-1" points="1931.29 1113.17 1916.26 1128.38 1913.1 1125.15 1904.4 1133.67 1907.75 1137.08 1890.83 1154.24 1887.49 1150.83 1878.78 1159.35 1882.31 1162.94 1865.4 1180.1 1861.87 1176.44 1853.17 1184.96 1856.88 1188.74 1839.96 1205.89 1836.19 1202.06 1827.49 1210.58 1831.38 1214.6 1814.53 1231.75 1810.58 1227.74 1801.88 1236.26 1805.95 1240.39 1789.04 1257.55 1784.9 1253.35 1776.26 1261.87 1780.52 1266.25 1763.6 1283.41 1759.28 1278.97 1750.58 1287.49 1755.08 1292.05 1738.17 1309.27 1733.67 1304.65 1724.97 1313.16 1729.65 1317.91 1712.74 1335.07 1707.99 1330.26 1699.35 1338.78 1704.22 1343.77 1687.3 1360.93 1682.37 1355.88 1673.67 1364.4 1678.72 1369.57 1661.87 1386.73 1656.76 1381.55 1648.06 1390.07 1653.29 1395.43 1636.38 1412.59 1631.08 1407.17 1622.44 1415.69 1627.86 1421.23 1610.94 1438.38 1605.47 1432.79 1596.77 1441.37 1602.42 1447.08 1585.51 1464.24 1579.85 1458.46 1571.15 1466.98 1576.99 1472.94 1560.08 1490.1 1554.17 1484.08 1545.53 1492.6 1551.56 1498.74 1534.64 1515.9 1528.56 1509.76 1519.86 1518.27 1526.06 1524.6 1509.21 1541.76 1502.94 1535.37 1494.24 1543.89 1500.63 1550.4 1483.71 1567.56 1477.26 1560.99 1468.56 1569.51 1475.2 1576.26 1458.28 1593.42 1451.65 1586.66 1447.76 1590.5 1442.95 1595.18 1447.76 1600.05 1449.76 1602.06 1447.76 1604.07 1432.85 1619.22 1426.03 1612.28 1417.33 1620.8 1417.51 1620.98 1424.33 1627.92 1409.67 1642.76 1407.41 1645.08 1405.16 1642.76 1400.36 1637.9 1395.37 1642.76 1391.65 1646.41 1398.84 1653.78 1397.68 1654.93 1381.98 1670.94 1374.74 1663.57 1366.04 1672.09 1373.4 1679.58 1356.49 1696.73 1349.06 1689.19 1340.42 1697.71 1347.97 1705.43 1331.05 1722.59 1323.45 1714.8 1314.75 1723.32 1322.54 1731.23 1305.62 1748.39 1297.83 1740.48 1289.13 1749 1297.1 1757.09 1280.19 1774.25 1272.22 1766.1 1263.52 1774.62 1271.67 1782.89 1254.75 1800.11 1246.54 1791.71 1237.84 1800.23 1246.17 1808.75 1229.32 1825.91 1220.92 1817.39 1212.22 1825.91 1220.74 1834.61 1203.83 1851.77 1195.25 1843.01 1186.61 1851.52 1195.31 1860.41 1178.39 1877.57 1169.63 1868.62 1160.93 1877.14 1169.87 1886.27 1152.96 1903.43 1144.01 1894.3 1135.31 1902.82 1144.44 1912.07 1127.53 1929.22 1118.34 1919.91 1109.7 1928.43 1118.95 1937.92 1102.46 1954.72 1092.84 1944.92 1113.35 1924.36 1104.71 1915.78 1084.26 1936.22 1067.41 1919.06 1087.43 1898.98 1078.85 1890.4 1058.89 1910.36 1042.04 1893.14 1061.57 1873.61 1052.93 1865.03 1033.52 1884.5 1016.6 1867.28 1035.65 1848.24 1027.01 1839.66 1008.09 1858.58 991.23 1841.42 1009.73 1822.87 1001.15 1814.29 982.71 1832.72 965.8 1815.56 983.87 1797.49 975.23 1788.91 957.28 1806.86 940.43 1789.64 957.95 1772.12 949.31 1763.54 931.91 1781 914.99 1763.79 932.03 1746.75 923.45 1738.11 906.48 1755.08 889.62 1737.93 906.17 1721.38 897.53 1712.74 881.1 1729.22 864.25 1712.07 880.25 1696 871.67 1687.36 855.73 1703.37 838.81 1686.15 854.39 1670.63 845.75 1661.99 830.3 1677.51 813.44 1660.29 828.47 1645.26 825.98 1642.76 819.83 1636.62 818.31 1638.14 806.14 1650.37 804.92 1651.59 788.01 1634.43 802.55 1619.89 793.97 1611.25 779.49 1625.73 762.64 1608.57 776.69 1594.51 768.05 1585.87 754.12 1599.87 737.2 1582.71 750.77 1569.14 742.13 1560.5 728.68 1574.01 711.83 1556.79 724.85 1543.77 716.27 1535.13 703.31 1548.15 686.46 1530.93 698.99 1518.4 690.35 1509.76 677.88 1522.23 661.02 1505.07 673.07 1493.02 664.43 1484.38 652.51 1496.37 635.65 1479.21 647.15 1467.65 638.57 1459.01 627.13 1470.51 610.22 1453.29 621.29 1442.28 612.65 1433.64 601.7 1444.65 584.85 1427.43 595.37 1416.84 586.79 1408.27 576.33 1418.73 559.41 1401.57 569.45 1391.47 560.87 1382.89 550.89 1392.87 534.04 1375.71 543.59 1366.1 534.95 1357.52 525.52 1367.01 508.67 1349.79 517.67 1340.73 509.09 1332.15 500.09 1341.15 483.23 1323.93 491.81 1315.35 483.17 1306.78 474.72 1315.23 457.86 1298.07 465.89 1289.98 457.25 1281.4 449.34 1289.37 432.43 1272.22 439.97 1264.61 431.39 1256.03 423.91 1263.51 407.06 1246.36 414.11 1239.24 405.47 1230.66 398.54 1237.66 381.62 1220.44 388.19 1213.86 379.55 1205.29 373.1 1211.8 356.25 1194.58 362.27 1188.49 353.69 1179.91 347.73 1185.88 330.82 1168.72 336.41 1163.12 327.77 1154.54 322.3 1160.02 312.93 1150.46 332.76 1130.32 340.79 1138.54 349.5 1130.02 341.28 1121.68 358.2 1104.53 366.47 1112.92 375.11 1104.4 366.78 1095.89 383.69 1078.73 392.09 1087.25 400.79 1078.73 392.21 1070.03 409.12 1052.87 417.7 1061.63 426.4 1053.11 417.7 1044.23 434.62 1027.07 443.38 1036.01 452.02 1027.5 443.14 1018.37 460.05 1001.27 469 1010.34 477.7 1001.82 468.57 992.57 485.49 975.41 494.61 984.72 503.31 976.2 494.06 966.77 510.98 949.61 520.29 959.11 528.93 950.59 519.5 940.91 536.41 923.75 545.9 933.43 554.61 924.91 544.99 915.11 561.85 897.96 571.52 907.81 580.22 899.29 570.43 889.32 587.34 872.16 597.2 882.2 605.9 873.68 595.86 863.46 612.77 846.3 622.81 856.52 631.51 848 621.35 837.66 638.27 820.5 648.43 830.9 657.13 822.39 646.79 811.86 663.7 794.7 674.11 805.29 682.81 796.77 672.22 786 689.13 768.84 699.72 779.61 708.42 771.09 697.71 760.2 714.63 743.04 725.34 754 734.04 745.48 723.15 734.34 740.06 717.25 751.02 728.38 759.72 719.8 748.64 708.54 765.56 691.39 776.63 702.7 785.33 694.18 774.07 682.75 790.99 665.59 802.31 677.09 806.14 673.31 810.95 668.57 806.14 663.64 799.51 656.89 806.14 650.13 816.42 639.73 818.31 641.67 827.92 651.47 836.62 642.89 829.57 635.71 825 631.09 832.43 623.54 841.92 613.93 851.35 623.54 853.54 625.79 855.85 623.54 862.24 617.28 850.44 605.29 854.21 601.46 866.2 589.29 867.35 588.13 868.51 589.29 879.22 600.18 887.86 591.66 885.54 589.29 875.93 579.43 892.79 562.27 904.83 574.56 913.53 565.98 901.36 553.63 918.28 536.47 930.45 548.89 939.15 540.37 926.8 527.77 943.71 510.68 956.12 523.27 964.76 514.75 952.29 501.97 969.21 484.82 981.74 497.59 990.44 489.08 977.73 476.18 994.64 459.02 1007.36 471.98 1016.06 463.46 1003.16 450.32 1020.07 433.22 1033.03 446.36 1041.67 437.84 1028.65 424.52 1045.57 407.36 1058.65 420.68 1067.35 412.17 1054.08 398.72 1071 381.56 1084.26 395.07 1092.97 386.55 1079.58 372.86 1096.43 355.7 1109.94 369.45 1118.58 360.93 1105.01 347.06 1121.93 329.9 1135.56 343.78 1144.26 335.26 1130.45 321.26 1137.75 313.9 1411.13 589.29 1423.23 601.46 1435.59 613.93 1447.76 626.16 1849.94 1031.27 1849.09 1032.12 1857.67 1040.7 1858.52 1039.91 1931.29 1113.17"/>
  <polygon class="cls-1" points="982.63 1850.03 865.81 1967.07 882.69 1984.26 999.5 1867.22 982.63 1850.03"/>
  <polygon class="cls-1" points="957.23 1824.15 840.42 1941.19 857.29 1958.38 974.1 1841.34 957.23 1824.15"/>
  <polygon class="cls-1" points="576.24 1436.05 459.43 1553.09 476.31 1570.28 593.12 1453.24 576.24 1436.05"/>
  <polygon class="cls-1" points="1008.02 1875.9 891.21 1992.94 908.09 2010.13 1024.9 1893.09 1008.02 1875.9"/>
  <polygon class="cls-1" points="680.63 760.18 568.04 645.48 551.13 662.63 663.72 777.33 680.63 760.18"/>
  <polygon class="cls-1" points="1033.42 1901.77 916.61 2018.81 933.49 2036 1050.3 1918.96 1033.42 1901.77"/>
  <polygon class="cls-1" points="476.98 966.74 364.39 852.05 347.48 869.2 460.07 983.89 476.98 966.74"/>
  <polygon class="cls-1" points="426.07 1018.38 313.48 903.69 296.56 920.84 409.15 1035.53 426.07 1018.38"/>
  <polygon class="cls-1" points="451.52 992.56 338.93 877.87 322.02 895.02 434.61 1009.71 451.52 992.56"/>
  <polygon class="cls-1" points="400.61 1044.2 288.02 929.51 271.11 946.67 383.7 1061.36 400.61 1044.2"/>
  <polygon class="cls-1" points="211.65 1006.97 191.82 1027.08 304.41 1141.78 324.24 1121.66 211.65 1006.97"/>
  <polygon class="cls-1" points="375.15 1070.02 262.56 955.33 245.65 972.48 358.24 1087.17 375.15 1070.02"/>
  <polygon class="cls-1" points="550.84 1410.18 434.03 1527.22 450.91 1544.41 567.72 1427.37 550.84 1410.18"/>
  <polygon class="cls-1" points="349.7 1095.84 237.11 981.15 220.19 998.31 332.78 1113 349.7 1095.84"/>
  <polygon class="cls-1" points="604.26 837.63 491.67 722.94 474.76 740.1 587.35 854.79 604.26 837.63"/>
  <polygon class="cls-1" points="629.72 811.82 517.13 697.12 500.22 714.27 612.81 828.97 629.72 811.82"/>
  <polygon class="cls-1" points="502.43 940.92 389.84 826.23 372.94 843.38 485.53 958.07 502.43 940.92"/>
  <polygon class="cls-1" points="655.18 785.99 542.59 671.3 525.68 688.46 638.26 803.15 655.18 785.99"/>
  <polygon class="cls-1" points="527.89 915.1 415.3 800.41 398.39 817.56 510.98 932.25 527.89 915.1"/>
  <polygon class="cls-1" points="553.35 889.28 440.76 774.59 423.85 791.74 536.44 906.43 553.35 889.28"/>
  <polygon class="cls-1" points="578.8 863.46 466.21 748.76 449.31 765.92 561.89 880.61 578.8 863.46"/>
  <polygon class="cls-1" points="295.86 1150.44 183.27 1035.75 169.28 1049.95 281.87 1164.64 295.86 1150.44"/>
  <polygon class="cls-1" points="449.24 1306.69 332.44 1423.73 349.31 1440.91 466.12 1323.88 449.24 1306.69"/>
  <polygon class="cls-1" points="273.33 1173.3 160.74 1058.61 143.82 1075.77 256.41 1190.46 273.33 1173.3"/>
  <polygon class="cls-1" points="500.04 1358.44 383.24 1475.47 400.11 1492.66 516.92 1375.62 500.04 1358.44"/>
  <polygon class="cls-1" points="525.44 1384.31 408.63 1501.34 425.51 1518.54 542.32 1401.5 525.44 1384.31"/>
  <polygon class="cls-1" points="474.64 1332.56 357.84 1449.6 374.71 1466.79 491.52 1349.75 474.64 1332.56"/>
  <polygon class="cls-1" points="373.04 1229.07 256.24 1346.1 273.11 1363.29 389.92 1246.26 373.04 1229.07"/>
  <polygon class="cls-1" points="398.45 1254.94 281.64 1371.97 298.51 1389.16 415.32 1272.13 398.45 1254.94"/>
  <polygon class="cls-1" points="222.41 1224.95 109.82 1110.25 92.91 1127.41 205.5 1242.1 222.41 1224.95"/>
  <polygon class="cls-1" points="247.87 1199.13 135.28 1084.44 118.37 1101.59 230.96 1216.28 247.87 1199.13"/>
  <polygon class="cls-1" points="84.37 1136.08 67.18 1153.51 179.77 1268.2 196.96 1250.77 84.37 1136.08"/>
  <polygon class="cls-1" points="322.25 1177.32 205.44 1294.35 222.32 1311.55 339.12 1194.51 322.25 1177.32"/>
  <polygon class="cls-1" points="347.65 1203.19 230.84 1320.23 247.71 1337.42 364.52 1220.38 347.65 1203.19"/>
  <polygon class="cls-1" points="304.39 1159.13 290.4 1173.32 298.23 1181.3 289.54 1189.82 281.85 1181.99 264.94 1199.15 272.59 1206.94 263.9 1215.46 256.39 1207.81 239.48 1224.96 246.95 1232.57 238.27 1241.09 230.94 1233.63 214.02 1250.79 221.31 1258.21 212.63 1266.73 205.48 1259.45 188.29 1276.89 196.92 1285.67 313.72 1168.64 304.39 1159.13"/>
  <polygon class="cls-2" points="205.5 1242.1 92.91 1127.41 84.37 1136.08 196.96 1250.77 205.5 1242.1"/>
  <path class="cls-2" d="M32.43,1171.42l.92-.93-2.42,2.37,91.29,93.06c4.71,4.8,12.41,4.87,17.21.17h0s-91.39-93.16-91.39-93.16l-6.95,7.04-8.66-8.54Z"/>
  <polygon class="cls-2" points="230.96 1216.28 118.37 1101.59 109.82 1110.25 222.41 1224.95 230.96 1216.28"/>
  <polygon class="cls-2" points="256.41 1190.46 143.82 1075.77 135.28 1084.44 247.87 1199.13 256.41 1190.46"/>
  <polygon class="cls-2" points="281.87 1164.64 169.28 1049.95 160.74 1058.61 273.33 1173.3 281.87 1164.64"/>
  <polygon class="cls-2" points="332.78 1113 220.19 998.31 211.65 1006.97 324.24 1121.66 332.78 1113"/>
  <polygon class="cls-2" points="358.24 1087.17 245.65 972.48 237.11 981.15 349.7 1095.84 358.24 1087.17"/>
  <polygon class="cls-2" points="383.7 1061.36 271.11 946.67 262.56 955.33 375.15 1070.02 383.7 1061.36"/>
  <polygon class="cls-2" points="409.15 1035.53 296.56 920.84 288.02 929.51 400.61 1044.2 409.15 1035.53"/>
  <polygon class="cls-2" points="434.61 1009.71 322.02 895.02 313.48 903.69 426.07 1018.38 434.61 1009.71"/>
  <polygon class="cls-2" points="460.07 983.89 347.48 869.2 338.93 877.87 451.52 992.56 460.07 983.89"/>
  <polygon class="cls-2" points="485.53 958.07 372.94 843.38 364.39 852.05 476.98 966.74 485.53 958.07"/>
  <polygon class="cls-2" points="510.98 932.25 398.39 817.56 389.84 826.23 502.43 940.92 510.98 932.25"/>
  <polygon class="cls-2" points="536.44 906.43 423.85 791.74 415.3 800.41 527.89 915.1 536.44 906.43"/>
  <polygon class="cls-2" points="561.89 880.61 449.31 765.92 440.76 774.59 553.35 889.28 561.89 880.61"/>
  <polygon class="cls-2" points="587.35 854.79 474.76 740.1 466.21 748.76 578.8 863.46 587.35 854.79"/>
  <polygon class="cls-2" points="612.81 828.97 500.22 714.27 491.67 722.94 604.26 837.63 612.81 828.97"/>
  <polygon class="cls-2" points="638.26 803.15 525.68 688.46 517.13 697.12 629.72 811.82 638.26 803.15"/>
  <polygon class="cls-2" points="663.72 777.33 551.13 662.63 542.59 671.3 655.18 785.99 663.72 777.33"/>
  <polygon class="cls-2" points="689.18 751.51 576.59 636.81 568.04 645.48 680.63 760.18 689.18 751.51"/>
  <polygon class="cls-2" points="714.64 725.68 602.05 610.99 593.5 619.66 706.09 734.35 714.64 725.68"/>
  <polygon class="cls-2" points="740.09 699.86 627.5 585.17 618.96 593.84 731.55 708.53 740.09 699.86"/>
  <polygon class="cls-2" points="765.55 674.04 652.96 559.35 644.41 568.02 757 682.71 765.55 674.04"/>
  <polygon class="cls-2" points="790.99 648.25 782.47 656.89 669.85 542.19 678.43 533.55 790.99 648.25"/>
  <polygon class="cls-2" points="816.49 622.39 807.9 631.09 806.14 629.26 695.34 516.39 703.86 507.69 806.14 611.86 816.49 622.39"/>
  <polygon class="cls-2" points="841.92 596.59 837.11 601.46 833.4 605.23 829.69 601.46 817.76 589.29 720.78 490.54 729.35 481.89 834.74 589.29 841.92 596.59"/>
  <polygon class="cls-2" points="867.38 570.76 754.79 456.07 746.24 464.74 858.83 579.43 867.38 570.76"/>
  <polygon class="cls-2" points="892.83 544.94 780.24 430.25 771.7 438.91 884.29 553.61 892.83 544.94"/>
  <polygon class="cls-2" points="918.29 519.12 805.7 404.43 797.15 413.1 909.74 527.79 918.29 519.12"/>
  <polygon class="cls-2" points="943.75 493.29 831.16 378.6 822.61 387.27 935.2 501.96 943.75 493.29"/>
  <polygon class="cls-2" points="969.2 467.48 856.61 352.78 848.07 361.45 960.66 476.15 969.2 467.48"/>
  <polygon class="cls-2" points="994.66 441.65 882.07 326.96 873.52 335.63 986.11 450.32 994.66 441.65"/>
  <polygon class="cls-2" points="1020.11 415.83 907.53 301.14 898.98 309.81 1011.57 424.5 1020.11 415.83"/>
  <polygon class="cls-2" points="1045.57 390.01 932.98 275.32 924.44 283.99 1037.03 398.68 1045.57 390.01"/>
  <polygon class="cls-2" points="1071.03 364.19 958.44 249.5 949.89 258.17 1062.48 372.86 1071.03 364.19"/>
  <polygon class="cls-2" points="1096.49 338.37 983.9 223.68 975.35 232.35 1087.94 347.04 1096.49 338.37"/>
  <polygon class="cls-2" points="1121.94 312.55 1009.35 197.86 1000.81 206.53 1113.4 321.22 1121.94 312.55"/>
  <polygon class="cls-2" points="1127.51 1946.61 1235.27 2056.38 1243.81 2047.71 1136.05 1937.94 1127.51 1946.61"/>
  <polygon class="cls-2" points="1152.96 1920.78 1260.71 2030.55 1269.25 2021.88 1161.49 1912.11 1152.96 1920.78"/>
  <polygon class="cls-2" points="1178.4 1894.94 1286.16 2004.72 1294.7 1996.04 1186.94 1886.27 1178.4 1894.94"/>
  <polygon class="cls-2" points="1203.84 1869.11 1311.6 1978.88 1320.14 1970.21 1212.38 1860.44 1203.84 1869.11"/>
  <polygon class="cls-2" points="1229.29 1843.28 1337.05 1953.05 1345.59 1944.38 1237.83 1834.61 1229.29 1843.28"/>
  <polygon class="cls-2" points="1254.73 1817.44 1362.49 1927.22 1371.03 1918.55 1263.27 1808.77 1254.73 1817.44"/>
  <polygon class="cls-2" points="1280.18 1791.61 1387.94 1901.38 1396.48 1892.71 1288.72 1782.94 1280.18 1791.61"/>
  <polygon class="cls-2" points="1305.62 1765.77 1413.38 1875.55 1421.92 1866.88 1314.16 1757.1 1305.62 1765.77"/>
  <polygon class="cls-2" points="1331.06 1739.94 1438.82 1849.71 1447.36 1841.04 1339.6 1731.27 1331.06 1739.94"/>
  <polygon class="cls-2" points="1356.51 1714.11 1464.27 1823.88 1472.81 1815.21 1365.05 1705.44 1356.51 1714.11"/>
  <polygon class="cls-2" points="1381.95 1688.27 1489.71 1798.05 1498.25 1789.38 1390.49 1679.6 1381.95 1688.27"/>
  <polygon class="cls-2" points="1523.69 1763.54 1515.17 1772.24 1407.41 1662.42 1414.78 1654.93 1415.93 1653.78 1417.09 1654.93 1523.69 1763.54"/>
  <polygon class="cls-2" points="1549.12 1737.68 1540.6 1746.38 1447.76 1651.83 1435.59 1639.42 1432.85 1636.62 1435.59 1633.82 1441.37 1627.92 1447.76 1634.43 1549.12 1737.68"/>
  <polygon class="cls-2" points="1458.28 1610.77 1566.04 1720.55 1574.59 1711.88 1466.82 1602.1 1458.28 1610.77"/>
  <polygon class="cls-2" points="1483.73 1584.94 1591.49 1694.71 1600.03 1686.04 1492.27 1576.27 1483.73 1584.94"/>
  <polygon class="cls-2" points="1509.17 1559.1 1616.94 1668.88 1625.48 1660.21 1517.71 1550.43 1509.17 1559.1"/>
  <polygon class="cls-2" points="1534.62 1533.27 1642.38 1643.04 1650.92 1634.37 1543.16 1524.6 1534.62 1533.27"/>
  <polygon class="cls-2" points="1560.06 1507.44 1667.82 1617.21 1676.36 1608.54 1568.6 1498.77 1560.06 1507.44"/>
  <polygon class="cls-2" points="1585.5 1481.61 1693.27 1591.38 1701.81 1582.71 1594.04 1472.93 1585.5 1481.61"/>
  <polygon class="cls-2" points="1610.95 1455.77 1718.71 1565.55 1727.25 1556.88 1619.49 1447.1 1610.95 1455.77"/>
  <polygon class="cls-2" points="1636.39 1429.94 1744.16 1539.71 1752.7 1531.04 1644.93 1421.27 1636.39 1429.94"/>
  <polygon class="cls-2" points="1661.84 1404.1 1769.6 1513.88 1778.14 1505.21 1670.38 1395.43 1661.84 1404.1"/>
  <polygon class="cls-2" points="1687.28 1378.27 1795.04 1488.04 1803.58 1479.37 1695.82 1369.6 1687.28 1378.27"/>
  <polygon class="cls-2" points="1712.72 1352.44 1820.49 1462.21 1829.03 1453.54 1721.26 1343.77 1712.72 1352.44"/>
  <polygon class="cls-2" points="1738.17 1326.6 1845.93 1436.38 1854.47 1427.71 1746.71 1317.93 1738.17 1326.6"/>
  <polygon class="cls-2" points="1763.61 1300.77 1871.38 1410.54 1879.92 1401.87 1772.16 1292.1 1763.61 1300.77"/>
  <polygon class="cls-2" points="1789.06 1274.94 1896.82 1384.71 1905.36 1376.04 1797.6 1266.26 1789.06 1274.94"/>
  <polygon class="cls-2" points="1814.5 1249.1 1922.26 1358.88 1930.8 1350.21 1823.04 1240.43 1814.5 1249.1"/>
  <polygon class="cls-2" points="1839.95 1223.27 1947.71 1333.04 1956.25 1324.37 1848.49 1214.6 1839.95 1223.27"/>
  <polygon class="cls-2" points="1865.39 1197.43 1973.15 1307.21 1981.69 1298.54 1873.93 1188.76 1865.39 1197.43"/>
  <polygon class="cls-2" points="1890.83 1171.6 1998.6 1281.37 2007.14 1272.7 1899.38 1162.93 1890.83 1171.6"/>
  <polygon class="cls-2" points="1916.28 1145.77 2024.04 1255.54 2032.58 1246.87 1924.82 1137.1 1916.28 1145.77"/>
  <polygon class="cls-2" points="1948.39 1113.16 2056.76 1222.32 2056.97 1222.11 1949.21 1112.34 1948.39 1113.16"/>
  <polygon class="cls-2" points="2105.74 1172.59 2015.74 1080.9 2007.13 1089.51 2097.2 1181.26 2105.74 1172.59"/>
  <polygon class="cls-2" points="2130.13 1147.83 2040.31 1056.34 2031.7 1064.94 2121.59 1156.5 2130.13 1147.83"/>
  <polygon class="cls-2" points="2154.54 1123.05 2064.9 1031.74 2056.3 1040.34 2146 1131.72 2154.54 1123.05"/>
  <path class="cls-2" d="M2173.09,1104.22l-2.25,2.25-89.5-91.15,8.58-8.64,79.65,81.11c1.4,5.42,2.62,10.89,3.53,16.43Z"/>
  <polygon class="cls-2" points="2080.24 961.97 2079.45 962.76 2059.5 942.43 2059.98 941.95 2080.24 961.97"/>
  <polygon class="cls-2" points="2098.92 980.52 2097.89 981.56 2087.97 971.46 2088.88 970.54 2098.92 980.52"/>
  <path class="cls-2" d="M2138.47,1022.87l-32.07-32.61,1.22-1.22,11.26,11.2c7.18,7.12,13.69,14.66,19.59,22.63Z"/>
  <polygon class="cls-2" points="313.72 1168.64 196.92 1285.67 205.44 1294.35 322.25 1177.32 313.72 1168.64"/>
  <polygon class="cls-2" points="339.12 1194.51 222.32 1311.55 230.84 1320.23 347.65 1203.19 339.12 1194.51"/>
  <polygon class="cls-2" points="364.52 1220.38 247.71 1337.42 256.24 1346.1 373.04 1229.07 364.52 1220.38"/>
  <polygon class="cls-2" points="389.92 1246.26 273.11 1363.29 281.64 1371.97 398.45 1254.94 389.92 1246.26"/>
  <polygon class="cls-2" points="415.32 1272.13 298.51 1389.16 307.04 1397.85 423.84 1280.81 415.32 1272.13"/>
  <polygon class="cls-2" points="440.72 1298 323.91 1415.04 332.44 1423.73 449.24 1306.69 440.72 1298"/>
  <polygon class="cls-2" points="466.12 1323.88 349.31 1440.91 357.84 1449.6 474.64 1332.56 466.12 1323.88"/>
  <polygon class="cls-2" points="491.52 1349.75 374.71 1466.79 383.24 1475.47 500.04 1358.44 491.52 1349.75"/>
  <polygon class="cls-2" points="516.92 1375.62 400.11 1492.66 408.63 1501.34 525.44 1384.31 516.92 1375.62"/>
  <polygon class="cls-2" points="542.32 1401.5 425.51 1518.54 434.03 1527.22 550.84 1410.18 542.32 1401.5"/>
  <polygon class="cls-2" points="567.72 1427.37 450.91 1544.41 459.43 1553.09 576.24 1436.05 567.72 1427.37"/>
  <polygon class="cls-2" points="593.12 1453.24 476.31 1570.28 484.83 1578.96 601.64 1461.93 593.12 1453.24"/>
  <polygon class="cls-2" points="618.51 1479.12 501.7 1596.15 510.23 1604.84 627.04 1487.8 618.51 1479.12"/>
  <polygon class="cls-2" points="643.91 1504.99 527.11 1622.03 535.63 1630.71 652.44 1513.67 643.91 1504.99"/>
  <polygon class="cls-2" points="669.31 1530.86 552.5 1647.9 561.03 1656.58 677.84 1539.55 669.31 1530.86"/>
  <polygon class="cls-2" points="694.71 1556.74 577.9 1673.78 586.43 1682.46 703.24 1565.42 694.71 1556.74"/>
  <polygon class="cls-2" points="720.11 1582.61 603.3 1699.65 611.82 1708.33 728.64 1591.3 720.11 1582.61"/>
  <polygon class="cls-2" points="745.51 1608.48 628.7 1725.52 637.23 1734.21 754.03 1617.17 745.51 1608.48"/>
  <polygon class="cls-2" points="770.91 1634.36 654.1 1751.39 662.62 1760.08 779.43 1643.04 770.91 1634.36"/>
  <polygon class="cls-2" points="670.89 1785.89 671.78 1786.77 670.9 1785.88 670.89 1785.89"/>
  <polygon class="cls-2" points="796.31 1660.23 679.5 1777.27 688.02 1785.95 804.83 1668.91 796.31 1660.23"/>
  <polygon class="cls-2" points="821.71 1686.1 704.9 1803.14 713.42 1811.82 830.23 1694.79 821.71 1686.1"/>
  <polygon class="cls-2" points="847.11 1711.98 730.3 1829.02 738.82 1837.7 855.63 1720.66 847.11 1711.98"/>
  <polygon class="cls-2" points="872.51 1737.85 755.69 1854.89 764.22 1863.57 881.03 1746.53 872.51 1737.85"/>
  <polygon class="cls-2" points="897.9 1763.72 781.09 1880.76 789.62 1889.45 906.43 1772.41 897.9 1763.72"/>
  <polygon class="cls-2" points="923.3 1789.6 806.49 1906.63 815.02 1915.32 931.83 1798.28 923.3 1789.6"/>
  <polygon class="cls-2" points="948.7 1815.47 831.89 1932.51 840.42 1941.19 957.23 1824.15 948.7 1815.47"/>
  <polygon class="cls-2" points="974.1 1841.34 857.29 1958.38 865.81 1967.07 982.63 1850.03 974.1 1841.34"/>
  <polygon class="cls-2" points="999.5 1867.22 882.69 1984.26 891.21 1992.94 1008.02 1875.9 999.5 1867.22"/>
  <polygon class="cls-2" points="1024.9 1893.09 908.09 2010.13 916.61 2018.81 1033.42 1901.77 1024.9 1893.09"/>
  <polygon class="cls-2" points="1050.3 1918.96 933.49 2036 942.01 2044.69 1058.82 1927.65 1050.3 1918.96"/>
  <polygon class="cls-2" points="1075.7 1944.84 958.89 2061.88 967.41 2070.56 1084.22 1953.52 1075.7 1944.84"/>
  <polygon class="cls-2" points="1114.52 1984.39 998.17 2101.89 1006.7 2110.58 1123.05 1993.08 1114.52 1984.39"/>
  <polygon class="cls-2" points="1139.92 2010.26 1023.57 2127.77 1032.1 2136.46 1148.45 2018.95 1139.92 2010.26"/>
  <polygon class="cls-2" points="1165.32 2036.14 1048.97 2153.64 1057.5 2162.33 1173.85 2044.83 1165.32 2036.14"/>
  <polygon class="cls-2" points="1190.72 2062.01 1074.37 2179.52 1082.9 2188.21 1199.26 2070.7 1190.72 2062.01"/>
  <polygon class="cls-2" points="1129.15 305.24 1132.78 301.56 1132.59 301.37 1137.54 296.42 1120.37 279.13 1117.51 281.98 1108.91 273.37 1111.79 270.49 1094.62 253.19 1090.43 257.37 1081.83 248.76 1086.04 244.55 1068.87 227.25 1064.59 231.52 1055.99 222.91 1060.29 218.61 1043.12 201.32 1038.75 205.68 1030.15 197.07 1034.54 192.68 1024.47 182.53 1015.92 191.2 1129.15 305.24"/>
  <polygon class="cls-2" points="1858.52 1022.63 1849.94 1031.27 1447.76 626.16 1435.59 613.93 1423.23 601.46 1411.13 589.29 1137.75 313.9 1146.27 305.2 1163.3 322.36 1157.83 327.83 1166.41 336.41 1171.88 331 1189.04 348.28 1183.99 353.39 1192.57 361.97 1197.62 356.92 1214.78 374.26 1208.27 380.77 1216.91 389.35 1223.36 382.9 1240.52 400.18 1236.26 404.44 1244.9 413.02 1249.09 408.82 1266.31 426.1 1262.42 429.99 1271.06 438.57 1274.89 434.74 1292.05 452.02 1286.09 457.98 1294.73 466.56 1300.63 460.66 1317.79 478 1309.82 485.97 1318.4 494.55 1326.37 486.64 1343.53 503.92 1339.94 507.51 1348.58 516.09 1352.11 512.56 1369.26 529.84 1364.58 534.59 1373.16 543.17 1377.84 538.48 1395.06 555.76 1390.13 560.75 1398.71 569.33 1403.64 564.4 1420.8 581.74 1416.24 586.24 1419.28 589.29 1424.88 594.88 1429.38 590.38 1446.54 607.66 1440.57 613.63 1447.76 620.87 1449.15 622.27 1455.12 616.3 1472.28 633.58 1467.65 638.27 1476.23 646.85 1480.86 642.22 1498.01 659.56 1491.93 665.65 1500.57 674.23 1506.59 668.2 1523.81 685.48 1520.53 688.71 1529.17 697.35 1532.39 694.12 1549.55 711.4 1542.37 718.52 1551.01 727.16 1558.13 720.04 1575.29 737.32 1569.75 742.86 1578.39 751.44 1583.87 745.96 1601.02 763.3 1597.5 766.83 1606.08 775.47 1609.6 771.95 1626.76 789.22 1622.08 793.91 1630.72 802.55 1635.34 797.87 1652.56 815.15 1647.33 820.38 1655.91 829.02 1661.14 823.79 1678.3 841.07 1673.8 845.63 1682.37 854.21 1686.88 849.71 1704.04 867.05 1698.99 872.1 1707.63 880.68 1712.61 875.69 1729.77 892.97 1724.24 898.56 1732.82 907.14 1738.35 901.61 1755.57 918.89 1751.92 922.54 1760.5 931.12 1764.09 927.53 1781.31 944.87 1776.5 949.61 1785.14 958.19 1789.89 953.51 1807.05 970.79 1801.75 976.08 1810.33 984.66 1815.63 979.43 1832.78 996.71 1827.61 1001.88 1836.19 1010.52 1841.36 1005.35 1858.52 1022.63"/>
  <polygon class="cls-2" points="1931.28 1113.19 1939.81 1104.52 1932.5 1097.15 1918.61 1083.16 1911.75 1090.03 1903.14 1081.42 1910.04 1074.53 1892.86 1057.23 1884.71 1065.37 1876.11 1056.77 1884.29 1048.59 1867.11 1031.29 1858.5 1039.89 1931.28 1113.19"/>
  <polygon class="cls-2" points="1939.85 1121.83 2048.23 1230.99 2056.76 1222.32 1948.39 1113.16 1939.85 1121.83"/>
  <polygon class="cls-2" points="1082.9 2188.21 1074.37 2179.52 1057.5 2162.33 1048.97 2153.64 1032.1 2136.46 1023.57 2127.77 1006.7 2110.58 998.17 2101.89 986.39 2089.89 977.85 2098.56 989.61 2110.54 998.14 2119.23 1015 2136.41 1023.54 2145.1 1040.4 2162.29 1048.93 2170.98 1065.81 2188.16 1074.34 2196.85 1085.61 2208.34 1094.15 2199.67 1082.9 2188.21"/>
  <polygon class="cls-2" points="967.41 2070.56 958.89 2061.88 942.01 2044.69 933.49 2036 916.61 2018.81 908.09 2010.13 891.21 1992.94 882.69 1984.26 865.81 1967.07 857.29 1958.38 840.42 1941.19 831.89 1932.51 815.02 1915.32 806.49 1906.63 789.62 1889.45 781.09 1880.76 764.22 1863.57 755.69 1854.89 738.82 1837.7 730.3 1829.02 713.42 1811.82 704.9 1803.14 688.02 1785.95 679.5 1777.27 662.62 1760.08 654.1 1751.39 637.23 1734.21 628.7 1725.52 611.82 1708.33 603.3 1699.65 586.43 1682.46 577.9 1673.78 561.03 1656.58 552.5 1647.9 535.63 1630.71 527.11 1622.03 510.23 1604.84 501.7 1596.15 484.83 1578.96 476.31 1570.28 459.43 1553.09 450.91 1544.41 434.03 1527.22 425.51 1518.54 408.63 1501.34 400.11 1492.66 383.24 1475.47 374.71 1466.79 357.84 1449.6 349.31 1440.91 332.44 1423.73 323.91 1415.04 307.04 1397.85 298.51 1389.16 281.64 1371.97 273.11 1363.29 256.24 1346.1 247.71 1337.42 230.84 1320.23 222.32 1311.55 205.44 1294.35 196.92 1285.67 188.29 1276.89 182.57 1282.69 173.91 1274.14 179.77 1268.2 67.18 1153.51 58.63 1162.17 188.32 1294.28 196.84 1302.97 213.72 1320.16 222.24 1328.84 239.12 1346.03 247.64 1354.72 264.52 1371.9 273.04 1380.59 289.92 1397.78 298.44 1406.46 315.32 1423.66 323.84 1432.34 340.71 1449.53 349.24 1458.21 366.11 1475.4 374.64 1484.08 391.51 1501.27 400.04 1509.96 416.91 1527.15 425.44 1535.83 442.31 1553.02 450.84 1561.7 467.71 1578.89 476.24 1587.58 493.11 1604.77 501.63 1613.45 518.51 1630.64 527.03 1639.33 543.91 1656.51 552.43 1665.2 569.31 1682.39 577.83 1691.07 594.7 1708.26 603.23 1716.94 620.11 1734.14 628.63 1742.82 645.5 1760.01 654.03 1768.69 670.9 1785.88 671.78 1786.77 969.32 2089.87 977.86 2081.2 967.41 2070.56"/>
  <path class="cls-2" d="M1115.05,2220.98c-6.08,0-12.11-.37-18.07-1.03l-2.86-2.92,8.58-8.64,12.35,12.6Z"/>
  <polygon class="cls-2" points="1024.45 182.54 1015.93 191.18 1009.36 197.87 1000.79 206.51 983.87 223.67 975.35 232.37 958.44 249.53 949.92 258.17 933 275.33 924.42 283.97 907.51 301.12 898.99 309.82 882.08 326.98 873.5 335.62 856.64 352.78 848.06 361.48 831.15 378.58 822.63 387.28 805.72 404.44 797.14 413.08 780.22 430.24 771.7 438.94 754.79 456.1 746.27 464.74 729.35 481.89 720.78 490.54 703.86 507.69 695.34 516.39 678.43 533.55 669.85 542.19 652.93 559.35 644.41 567.99 627.5 585.15 618.98 593.85 602.06 611.01 593.49 619.65 576.57 636.81 568.05 645.51 551.14 662.61 542.56 671.31 525.7 688.47 517.12 697.11 500.21 714.26 491.69 722.96 474.78 740.12 466.2 748.76 449.28 765.92 440.76 774.56 423.85 791.72 415.33 800.42 398.42 817.58 389.84 826.22 372.92 843.38 364.4 852.02 347.49 869.18 338.91 877.88 321.99 895.04 313.48 903.68 296.56 920.83 288.04 929.53 271.13 946.69 262.55 955.33 245.63 972.49 237.11 981.13 220.2 998.29 211.62 1006.99 191.85 1027.07 183.27 1018.43 203.1 998.29 211.68 989.65 228.6 972.49 237.11 963.79 254.03 946.63 262.55 937.99 279.46 920.83 288.04 912.13 304.96 894.97 313.48 886.33 330.39 869.18 338.97 860.54 355.88 843.38 364.4 834.68 381.32 817.52 389.84 808.88 406.75 791.72 415.33 783.08 432.25 765.92 440.76 757.22 457.68 740.06 466.26 731.42 483.17 714.26 491.69 705.56 508.61 688.47 517.12 679.76 534.04 662.61 542.62 653.97 559.54 636.81 568.05 628.11 584.97 610.95 593.55 602.31 610.4 585.15 618.98 576.51 635.89 559.35 644.41 550.65 661.33 533.49 669.91 524.85 686.82 507.69 695.34 498.99 712.26 481.89 720.78 473.19 737.69 456.04 746.27 447.4 763.18 430.24 771.7 421.54 788.62 404.44 797.2 395.74 814.11 378.58 822.63 369.94 839.55 352.78 848.06 344.08 864.98 326.92 873.56 318.28 890.47 301.12 898.99 292.48 915.91 275.33 924.49 266.62 941.34 249.47 949.92 240.83 966.83 223.67 975.35 214.97 992.27 197.87 1000.85 189.17 1007.36 182.54 1011.43 178.4 1016.73 174.5 1017.46 175.3 1024.45 182.54"/>
  <polygon class="cls-2" points="84.37 1136.08 92.91 1127.41 109.82 1110.25 118.37 1101.59 135.28 1084.44 143.82 1075.77 160.74 1058.61 169.28 1049.95 183.27 1035.75 174.75 1027.07 160.75 1041.26 152.21 1049.93 135.3 1067.08 126.75 1075.75 109.84 1092.9 101.3 1101.56 108.31 1108.7 99.62 1117.22 92.76 1110.23 84.38 1118.73 75.84 1127.39 58.65 1144.82 50.11 1153.49 33.35 1170.49 32.43 1171.42 41.09 1179.97 48.04 1172.92 58.63 1162.17 67.18 1153.51 84.37 1136.08"/>
  <polygon class="cls-2" points="214.02 1250.79 230.94 1233.63 239.48 1224.96 256.39 1207.81 264.94 1199.15 281.85 1181.99 290.4 1173.32 304.39 1159.13 301.63 1156.32 295.86 1150.44 281.87 1164.64 273.33 1173.3 256.41 1190.46 247.87 1199.13 230.96 1216.28 222.41 1224.95 205.5 1242.1 196.96 1250.77 179.77 1268.2 173.91 1274.14 182.57 1282.69 188.29 1276.89 205.48 1259.45 214.02 1250.79"/>
  <polygon class="cls-2" points="1162.03 289.2 1146.27 305.2 1137.75 313.9 1130.45 321.26 1121.93 329.9 1105.01 347.06 1096.43 355.7 1079.58 372.86 1071 381.56 1054.08 398.72 1045.57 407.36 1028.65 424.52 1020.07 433.22 1003.16 450.32 994.64 459.02 977.73 476.18 969.21 484.82 952.29 501.97 943.71 510.68 926.8 527.77 918.28 536.47 901.36 553.63 892.79 562.27 875.93 579.43 867.35 588.13 866.2 589.29 854.21 601.46 850.44 605.29 841.92 613.93 832.43 623.54 825 631.09 820.44 635.71 818.31 635.71 818.31 637.84 816.42 639.73 806.14 650.13 799.51 656.89 790.99 665.59 774.07 682.75 765.56 691.39 748.64 708.54 740.06 717.25 723.15 734.34 714.63 743.04 697.71 760.2 689.13 768.84 672.22 786 663.7 794.7 646.79 811.86 638.27 820.5 621.35 837.66 612.77 846.3 595.86 863.46 587.34 872.16 570.43 889.32 561.85 897.96 544.99 915.11 536.41 923.75 519.5 940.91 510.98 949.61 494.06 966.77 485.49 975.41 468.57 992.57 460.05 1001.27 443.14 1018.37 434.62 1027.07 417.7 1044.23 409.12 1052.87 392.21 1070.03 383.69 1078.73 366.78 1095.89 358.2 1104.53 341.28 1121.68 332.76 1130.32 312.93 1150.46 310.31 1147.79 304.41 1141.76 324.25 1121.68 332.76 1112.98 349.68 1095.82 358.26 1087.18 375.17 1070.03 383.69 1061.39 400.61 1044.23 409.12 1035.53 426.04 1018.37 434.62 1009.73 451.53 992.57 460.05 983.87 476.97 966.71 485.55 958.07 502.46 940.91 510.98 932.27 527.89 915.11 536.41 906.41 553.33 889.25 561.91 880.61 578.82 863.46 587.34 854.82 604.26 837.66 612.83 828.96 629.69 811.8 638.27 803.16 655.18 786 663.7 777.3 680.62 760.2 689.2 751.5 706.11 734.34 714.63 725.7 731.55 708.54 740.06 699.84 756.98 682.68 765.56 674.04 782.47 656.89 790.99 648.25 806.14 632.85 807.9 631.09 816.49 622.39 818.31 620.56 833.4 605.23 837.11 601.46 841.92 596.59 849.1 589.29 858.83 579.43 867.35 570.73 884.27 553.63 892.84 544.93 909.76 527.77 918.28 519.13 935.19 501.97 943.77 493.27 960.63 476.11 969.21 467.47 986.12 450.32 994.64 441.68 1011.55 424.52 1020.13 415.82 1037.05 398.66 1045.57 390.02 1062.48 372.86 1071.06 364.22 1087.92 347.06 1096.5 338.36 1113.41 321.2 1121.93 312.56 1129.17 305.26 1132.76 301.55 1141.22 309.95 1162.03 289.2"/>
  <polygon class="cls-2" points="1084.29 1936.22 1067.42 1919.03 1058.89 1910.35 1042.02 1893.16 1033.5 1884.48 1016.62 1867.29 1008.09 1858.6 991.22 1841.41 982.7 1832.73 965.82 1815.54 957.3 1806.86 940.42 1789.67 931.9 1780.98 915.02 1763.79 906.5 1755.11 889.63 1737.92 881.1 1729.24 864.23 1712.05 855.7 1703.36 838.83 1686.18 830.3 1677.49 813.43 1660.3 804.9 1651.62 788.03 1634.43 779.51 1625.74 762.63 1608.55 754.11 1599.87 737.23 1582.68 728.71 1574 711.83 1556.81 703.31 1548.12 686.43 1530.93 677.91 1522.25 661.03 1505.06 652.51 1496.38 635.64 1479.19 627.11 1470.51 610.24 1453.32 601.71 1444.63 584.84 1427.44 576.31 1418.76 559.44 1401.57 550.91 1392.88 534.04 1375.69 525.51 1367.01 508.64 1349.82 500.11 1341.14 483.24 1323.95 474.71 1315.26 457.84 1298.07 449.32 1289.39 432.44 1272.2 423.92 1263.52 407.04 1246.33 398.52 1237.65 381.64 1220.45 373.12 1211.77 356.24 1194.58 347.72 1185.9 330.84 1168.71 322.32 1160.02 312.93 1150.46 310.32 1147.8 301.63 1156.32 304.39 1159.13 313.72 1168.64 322.25 1177.32 339.12 1194.51 347.65 1203.19 364.52 1220.38 373.04 1229.07 389.92 1246.26 398.45 1254.94 415.32 1272.13 423.84 1280.81 440.72 1298 449.24 1306.69 466.12 1323.88 474.64 1332.56 491.52 1349.75 500.04 1358.44 516.92 1375.62 525.44 1384.31 542.32 1401.5 550.84 1410.18 567.72 1427.37 576.24 1436.05 593.12 1453.24 601.64 1461.93 618.51 1479.12 627.04 1487.8 643.91 1504.99 652.44 1513.67 669.31 1530.86 677.84 1539.55 694.71 1556.74 703.24 1565.42 720.11 1582.61 728.64 1591.3 745.51 1608.48 754.03 1617.17 770.91 1634.36 779.43 1643.04 796.31 1660.23 804.83 1668.91 821.71 1686.1 830.23 1694.79 847.11 1711.98 855.63 1720.66 872.51 1737.85 881.03 1746.53 897.9 1763.72 906.43 1772.41 923.3 1789.6 931.83 1798.28 948.7 1815.47 957.23 1824.15 974.1 1841.34 982.63 1850.03 999.5 1867.22 1008.02 1875.9 1024.9 1893.09 1033.42 1901.77 1050.3 1918.96 1058.82 1927.65 1075.7 1944.84 1084.22 1953.52 1093.9 1963.38 1102.44 1954.71 1092.82 1944.91 1084.29 1936.22"/>
  <polygon class="cls-2" points="1199.29 2053.36 1182.42 2036.18 1173.89 2027.49 1157.02 2010.3 1148.49 2001.61 1131.62 1984.43 1123.09 1975.74 1110.97 1963.4 1102.43 1972.07 1114.52 1984.39 1123.05 1993.08 1139.92 2010.26 1148.45 2018.95 1165.32 2036.14 1173.85 2044.83 1190.72 2062.01 1199.26 2070.7 1210.19 2081.84 1218.73 2073.17 1207.82 2062.05 1199.29 2053.36"/>
  <polygon class="cls-2" points="295.86 1150.44 301.63 1156.32 310.32 1147.8 304.41 1141.78 191.82 1027.08 183.29 1018.4 174.75 1027.07 183.27 1035.75 295.86 1150.44"/>
  <path class="cls-2" d="M2175.04,1119.55l-11.99,12.17-8.52,8.7-15.88,16.12-8.52,8.64-15.88,16.06-8.52,8.7-15.82,16.06-8.58,8.7-15.82,16.06-8.58,8.7-15.82,16.06-8.52,8.7-16.92,17.16-8.58,8.64-16.85,17.16-8.58,8.7-16.92,17.16-8.52,8.7-16.91,17.16-8.52,8.64-16.92,17.16-8.52,8.7-16.92,17.16-8.58,8.64-16.85,17.16-8.58,8.7-16.92,17.16-8.52,8.64-16.92,17.16-8.52,8.7-16.92,17.16-8.52,8.7-16.91,17.16-8.52,8.64-16.92,17.16-8.58,8.7-16.85,17.16-8.58,8.64-16.92,17.16-8.52,8.7-16.91,17.16-8.52,8.64-16.92,17.22-8.52,8.64-16.92,17.16-8.52,8.7-16.91,17.16-8.58,8.64-16.85,17.16-8.58,8.7-16.92,17.16-8.52,8.64-16.92,17.16-8.52,8.7-16.91,17.16-8.52,8.7-16.92,17.16-8.58,8.64-16.85,17.16-8.58,8.7-16.92,17.16-8.52,8.64-16.91,17.16-8.52,8.7-16.92,17.16-8.52,8.64-16.92,17.16-8.52,8.7-16.91,17.16-8.58,8.7-16.85,17.16-8.58,8.64-16.92,17.16-8.52,8.7-16.55,16.79-8.52,8.64-116.03,117.86-8.58,8.64-8.52-8.7,8.52-8.64,116.09-117.86,8.52-8.64,16.55-16.79,8.52-8.7,16.91-17.16,8.52-8.64,16.92-17.16,8.58-8.7,16.85-17.16,8.58-8.64,16.92-17.16,8.52-8.7,16.92-17.16,8.52-8.64,16.92-17.22,8.52-8.64,16.92-17.16,8.52-8.7,16.91-17.16,8.58-8.64,16.85-17.16,8.58-8.7,16.92-17.16,8.52-8.64,16.92-17.16,8.52-8.7,16.91-17.16,8.52-8.7,16.92-17.16,8.52-8.64,16.92-17.16,8.58-8.7,16.92-17.16,8.52-8.64,16.92-17.16,8.52-8.7,16.92-17.16,8.52-8.64,16.92-17.22,8.52-8.64,16.91-17.16,8.58-8.7,16.85-17.16,8.58-8.64,16.92-17.16,8.52-8.7,16.92-17.16,8.52-8.64,16.91-17.16,8.52-8.7,16.92-17.16,8.52-8.64,16.92-17.22,8.58-8.64,16.85-17.16,8.58-8.7,16.92-17.16,8.52-8.64,16.92-17.16,8.52-8.7,16.92-17.16,8.52-8.64,16.91-17.16,8.58-8.7,16.85-17.16,8.58-8.7,15.64-15.88,8.52-8.64.18-.18,15.88-16.12,8.52-8.64,15.88-16.12,8.52-8.64,15.88-16.12,8.52-8.64,15.88-16.12,8.52-8.7,16.31-16.55,2.25-2.25c.85,5.05,1.52,10.16,1.95,15.33Z"/>
  <polygon class="cls-2" points="2088.88 970.54 2087.97 971.46 1949.18 1112.31 1948.39 1113.17 1939.87 1121.81 1924.84 1137.08 1916.26 1145.78 1899.35 1162.94 1890.83 1171.58 1873.92 1188.74 1865.4 1197.44 1848.48 1214.6 1839.96 1223.3 1823.05 1240.45 1814.53 1249.09 1797.62 1266.25 1789.04 1274.95 1772.18 1292.11 1763.6 1300.75 1746.69 1317.91 1738.17 1326.61 1721.26 1343.77 1712.74 1352.41 1695.82 1369.63 1687.3 1378.27 1670.39 1395.43 1661.81 1404.13 1644.95 1421.29 1636.38 1429.93 1619.46 1447.08 1610.94 1455.79 1594.03 1472.94 1585.51 1481.58 1568.59 1498.74 1560.08 1507.44 1543.16 1524.6 1534.64 1533.24 1517.73 1550.46 1509.15 1559.1 1492.29 1576.26 1483.71 1584.96 1466.8 1602.12 1458.28 1610.76 1447.76 1621.41 1441.37 1627.92 1435.59 1633.82 1432.85 1636.62 1426.76 1642.76 1415.93 1653.78 1414.78 1654.93 1407.41 1662.42 1390.5 1679.58 1381.98 1688.28 1365.07 1705.43 1356.49 1714.14 1339.63 1731.29 1331.05 1739.93 1314.14 1757.09 1305.62 1765.79 1288.71 1782.95 1280.19 1791.59 1263.27 1808.75 1254.75 1817.45 1237.84 1834.61 1229.26 1843.25 1212.4 1860.47 1203.83 1869.11 1186.91 1886.27 1178.39 1894.97 1161.48 1912.13 1152.96 1920.77 1136.04 1937.92 1127.53 1946.63 1110.98 1963.42 1102.46 1972.06 986.36 2089.92 977.85 2098.56 969.33 2089.86 977.85 2081.22 1093.88 1963.36 1102.46 1954.72 1118.95 1937.92 1127.53 1929.22 1144.44 1912.07 1152.96 1903.43 1169.87 1886.27 1178.39 1877.57 1195.31 1860.41 1203.83 1851.77 1220.74 1834.61 1229.32 1825.91 1246.17 1808.75 1254.75 1800.11 1271.67 1782.89 1280.19 1774.25 1297.1 1757.09 1305.62 1748.39 1322.54 1731.23 1331.05 1722.59 1347.97 1705.43 1356.49 1696.73 1373.4 1679.58 1381.98 1670.94 1397.68 1654.93 1398.84 1653.78 1407.41 1645.08 1409.67 1642.76 1424.33 1627.92 1431.14 1620.98 1432.85 1619.22 1447.76 1604.07 1449.76 1602.06 1458.28 1593.42 1475.2 1576.26 1483.71 1567.56 1500.63 1550.4 1509.21 1541.76 1526.06 1524.6 1534.64 1515.9 1551.56 1498.74 1560.08 1490.1 1576.99 1472.94 1585.51 1464.24 1602.42 1447.08 1610.94 1438.38 1627.86 1421.23 1636.38 1412.59 1653.29 1395.43 1661.87 1386.73 1678.72 1369.57 1687.3 1360.93 1704.22 1343.77 1712.74 1335.07 1729.65 1317.91 1738.17 1309.27 1755.08 1292.05 1763.6 1283.41 1780.52 1266.25 1789.04 1257.55 1805.95 1240.39 1814.53 1231.75 1831.38 1214.6 1839.96 1205.89 1856.88 1188.74 1865.4 1180.1 1882.31 1162.94 1890.83 1154.24 1907.75 1137.08 1916.26 1128.38 1931.29 1113.17 1939.81 1104.53 1940.66 1103.67 2079.45 962.76 2080.24 961.97 2088.88 970.54"/>
  <path class="cls-2" d="M1111.89,26.83l-90.27,88.35h0c-1.21-6.82-.38-14.05,3.31-19.92,1.23-1.95,2.68-3.78,4.35-5.44l62.61-62.49-3.05-3c7.85,0,15.58.85,23.06,2.49Z"/>
  <path class="cls-2" d="M1149.79,43.08l-117.06,116.94-19.84,19.84-1.46-1.46h0c-3.94-3.97-3.92-10.38.03-14.33l127.56-127.44c3.71,1.95,7.3,4.08,10.77,6.45Z"/>
  <polygon class="cls-2" points="1177.12 67.54 1043.13 201.34 1038.75 205.66 1030.17 197.08 1034.55 192.7 1168.41 58.96 1177.12 67.54"/>
  <polygon class="cls-2" points="1203.03 93.22 1068.87 227.26 1064.61 231.52 1055.97 222.94 1060.29 218.62 1194.39 84.64 1203.03 93.22"/>
  <polygon class="cls-2" points="1229.02 118.95 1094.61 253.18 1090.41 257.38 1081.83 248.74 1086.03 244.54 1220.38 110.37 1229.02 118.95"/>
  <polygon class="cls-2" points="1254.94 144.63 1120.35 279.1 1117.49 281.96 1108.91 273.38 1111.77 270.52 1246.3 136.11 1254.94 144.63"/>
  <polygon class="cls-2" points="1280.92 170.37 1162.03 289.2 1141.22 309.95 1132.76 301.55 1132.58 301.37 1137.57 296.44 1272.34 161.85 1280.92 170.37"/>
  <polygon class="cls-2" points="1306.9 196.1 1171.88 331 1166.41 336.41 1157.83 327.83 1163.3 322.36 1298.26 187.53 1306.9 196.1"/>
  <polygon class="cls-2" points="1332.88 221.84 1197.62 356.92 1192.57 361.97 1183.99 353.39 1189.04 348.28 1324.24 213.2 1332.88 221.84"/>
  <polygon class="cls-2" points="1358.86 247.52 1223.36 382.9 1216.91 389.35 1208.27 380.77 1214.78 374.26 1350.22 238.94 1358.86 247.52"/>
  <polygon class="cls-2" points="1384.78 273.26 1249.09 408.82 1244.9 413.02 1236.26 404.44 1240.52 400.18 1376.2 264.68 1384.78 273.26"/>
  <polygon class="cls-2" points="1410.76 298.99 1274.89 434.74 1271.06 438.57 1262.42 429.99 1266.31 426.1 1402.12 290.41 1410.76 298.99"/>
  <polygon class="cls-2" points="1436.74 324.67 1300.63 460.66 1294.73 466.56 1286.09 457.98 1292.05 452.02 1428.1 316.09 1436.74 324.67"/>
  <polygon class="cls-2" points="1462.72 350.41 1326.37 486.64 1318.4 494.55 1309.82 485.97 1317.79 478 1454.08 341.83 1462.72 350.41"/>
  <polygon class="cls-2" points="1488.7 376.15 1352.11 512.56 1348.58 516.09 1339.94 507.51 1343.53 503.92 1480 367.57 1488.7 376.15"/>
  <polygon class="cls-2" points="1514.62 401.82 1377.84 538.48 1373.16 543.17 1364.58 534.59 1369.26 529.84 1505.98 393.24 1514.62 401.82"/>
  <polygon class="cls-2" points="1540.6 427.56 1403.64 564.4 1398.71 569.33 1390.13 560.75 1395.06 555.76 1531.96 418.98 1540.6 427.56"/>
  <polygon class="cls-2" points="1566.59 453.3 1430.48 589.29 1424.88 594.88 1419.28 589.29 1416.24 586.24 1420.8 581.74 1557.95 444.72 1566.59 453.3"/>
  <polygon class="cls-2" points="1592.57 478.97 1455.12 616.3 1449.15 622.27 1447.76 620.87 1440.57 613.63 1446.54 607.66 1447.76 606.45 1583.93 470.46 1592.57 478.97"/>
  <polygon class="cls-2" points="1618.55 504.71 1480.86 642.22 1476.23 646.85 1467.65 638.27 1472.28 633.58 1609.85 496.13 1618.55 504.71"/>
  <polygon class="cls-2" points="1644.53 530.45 1506.59 668.2 1500.57 674.23 1491.93 665.65 1498.01 659.56 1635.83 521.87 1644.53 530.45"/>
  <polygon class="cls-2" points="1670.51 556.19 1532.39 694.12 1529.17 697.35 1520.53 688.71 1523.81 685.48 1661.81 547.61 1670.51 556.19"/>
  <polygon class="cls-2" points="1696.43 581.86 1558.13 720.04 1551.01 727.16 1542.37 718.52 1549.55 711.4 1687.79 573.28 1696.43 581.86"/>
  <polygon class="cls-2" points="1722.41 607.6 1583.87 745.96 1578.39 751.44 1569.75 742.86 1575.29 737.32 1713.77 599.02 1722.41 607.6"/>
  <polygon class="cls-2" points="1748.39 633.28 1609.6 771.95 1606.08 775.47 1597.5 766.83 1601.02 763.3 1739.75 624.76 1748.39 633.28"/>
  <polygon class="cls-2" points="1774.31 659.02 1635.34 797.87 1630.72 802.55 1622.08 793.91 1626.76 789.22 1765.67 650.44 1774.31 659.02"/>
  <polygon class="cls-2" points="1800.35 684.75 1661.14 823.79 1655.91 829.02 1647.33 820.38 1652.56 815.15 1791.65 676.17 1800.35 684.75"/>
  <polygon class="cls-2" points="1826.27 710.43 1686.88 849.71 1682.37 854.21 1673.8 845.63 1678.3 841.07 1817.63 701.91 1826.27 710.43"/>
  <polygon class="cls-2" points="1852.26 736.17 1712.61 875.69 1707.63 880.68 1698.99 872.1 1704.04 867.05 1843.61 727.65 1852.26 736.17"/>
  <polygon class="cls-2" points="1878.24 761.91 1738.35 901.61 1732.82 907.14 1724.24 898.56 1729.77 892.97 1869.53 753.33 1878.24 761.91"/>
  <polygon class="cls-2" points="1904.16 787.58 1764.09 927.53 1760.5 931.12 1751.92 922.54 1755.57 918.89 1895.58 779.06 1904.16 787.58"/>
  <polygon class="cls-2" points="1930.14 813.32 1789.89 953.51 1785.14 958.19 1776.5 949.61 1781.31 944.87 1921.5 804.8 1930.14 813.32"/>
  <polygon class="cls-2" points="1956.12 839.06 1815.63 979.43 1810.33 984.66 1801.75 976.08 1807.05 970.79 1947.48 830.48 1956.12 839.06"/>
  <polygon class="cls-2" points="1982.1 864.8 1841.36 1005.35 1836.19 1010.52 1827.61 1001.88 1832.78 996.71 1973.46 856.22 1982.1 864.8"/>
  <polygon class="cls-2" points="2008.02 890.47 1867.1 1031.27 1858.52 1039.91 1849.94 1031.27 1858.52 1022.63 1999.38 881.89 2008.02 890.47"/>
  <polygon class="cls-2" points="2034 916.21 1892.84 1057.25 1884.69 1065.4 1876.11 1056.76 1884.32 1048.61 2025.42 907.63 2034 916.21"/>
  <polygon class="cls-2" points="2059.98 941.95 2059.5 942.43 1918.64 1083.17 1911.76 1090.04 1903.12 1081.4 1910.06 1074.53 2051.34 933.37 2059.98 941.95"/>
  <path class="cls-2" d="M1203.35,2150.65l-68.34,69.05c-6.02.79-12.17,1.22-18.38,1.22l86.64-87.5h0c4.77,4.74,4.81,12.45.08,17.23Z"/>
  <path class="cls-2" d="M2175.59,1146.57c-.3,6.45-.97,12.84-1.95,19.17l-37.99,37.94c-4.76,4.76-12.48,4.77-17.25.02h0s57.19-57.13,57.19-57.13Z"/>
  <path class="cls-2" d="M108.31,1108.72l-8.7,8.52-6.82-7-17.4-17.71,5.54-5.54-8.58-8.64-5.48,5.48-16.91-17.22,6.08-6.08-8.64-8.64-5.96,6.02-2.19-2.19c1.64-4.02,3.53-7.91,5.54-11.74l45.76,46.61,10.77,10.95,7,7.18Z"/>
  <path class="cls-2" d="M80.92,1087l-55.92,55.92c-.43-4.62-.67-9.31-.67-14.06,0-.85,0-1.76.06-2.62l42.47-42.41,5.48-5.48,8.58,8.64Z"/>
  <path class="cls-2" d="M56.04,1060.53l-24.76,24.76-1.52-1.52c1.7-7.06,3.89-13.99,6.51-20.75l5.17-5.11,5.96-6.02,8.64,8.64Z"/>
  <path class="cls-2" d="M2107.63,989.05l-1.21,1.21-16.54,16.4-8.52,8.66-16.47,16.47-8.66,8.52-15.9,16.04-8.66,8.59-15.9,15.97-8.66,8.59-15.9,15.97,90.16,91.86-8.52,8.66-95.92-97.74c-1.59-1.62-1.57-4.21.03-5.81l120.95-120.92.99-.99,8.73,8.52Z"/>
  <path class="cls-1" d="M1216.85,2166.34c-22.82,23-51.66,37.3-83.36,41.31-5.72.73-11.38,1.1-16.85,1.1h-.67l-.67.06h-.24c-5.41,0-11.01-.3-16.73-.97-32-3.65-61.09-17.71-84.09-40.52L87.01,1249.03c-29.02-28.66-46.73-66.69-49.89-107.09-.43-4.69-.61-8.88-.61-13.08,0-.55,0-1.22.06-1.76v-.79c.06-13.33,1.7-26.65,4.99-39.55,1.58-6.57,3.59-13.02,6.02-19.35.91-2.37,1.76-4.5,2.74-6.57,1.52-3.77,3.16-7.3,5.23-11.2,7.91-15.21,18.13-29.15,30.3-41.44L1020.26,65.1c18.19-18.38,42.47-28.54,68.33-28.6,7.12,0,13.99.73,20.69,2.19,8.52,1.83,16.55,4.75,24.03,8.7,3.53,1.83,6.63,3.71,9.61,5.72,4.87,3.29,9.49,7.12,13.75,11.32l3.1,3.1,26.04,25.74,51.9,51.48,51.96,51.41,8.64,8.58,17.4,17.1,8.58,8.58,17.4,17.16,25.92,25.74,8.58,8.52,25.98,25.8,17.4,17.1,51.84,51.47,25.98,25.68,77.94,77.21,8.7,8.52,17.22,17.16,8.76,8.58,17.22,17.16,8.76,8.58,17.22,17.16,25.98,25.68,51.96,51.48,8.7,8.52,25.86,25.74,26.1,25.74,17.22,17.16,8.7,8.52,17.28,17.22,8.7,8.52,17.22,17.16,26.04,25.74,25.92,25.74,25.98,25.68,60.54,59.99,17.46,17.16,8.52,8.52,25.98,25.8,20.26,20.02,18.68,18.56,8.76,8.58,11.2,11.13c6.63,6.57,12.84,13.75,18.38,21.23,13.63,18.38,23.42,38.82,29.08,60.72,1.46,5.6,2.56,10.59,3.35,15.39.85,5.05,1.46,9.74,1.83,14.3.49,5.6.73,10.59.73,15.27,0,3.41-.06,6.75-.24,10.16-.24,5.84-.85,11.86-1.83,17.95-5.66,37.72-23,72.1-50.08,99.42l-894.67,903.01Z"/>
  <path class="cls-1" d="M1216.85,2166.34c-22.82,23-51.66,37.3-83.36,41.31-5.72.73-11.38,1.1-16.85,1.1h-.67l-.67.06h-.24c-5.41,0-11.01-.3-16.73-.97-32-3.65-61.09-17.71-84.09-40.52L87.01,1249.03c-29.02-28.66-46.73-66.69-49.89-107.09-.43-4.69-.61-8.88-.61-13.08,0-.55,0-1.22.06-1.76v-.79c.06-13.33,1.7-26.65,4.99-39.55,1.58-6.57,3.59-13.02,6.02-19.35.91-2.37,1.76-4.5,2.74-6.57,1.52-3.77,3.16-7.3,5.23-11.2,7.91-15.21,18.13-29.15,30.3-41.44L1020.26,65.1c18.19-18.38,42.47-28.54,68.33-28.6,7.12,0,13.99.73,20.69,2.19,8.52,1.83,16.55,4.75,24.03,8.7,3.53,1.83,6.63,3.71,9.61,5.72,4.87,3.29,9.49,7.12,13.75,11.32l3.1,3.1,26.04,25.74,51.9,51.48,51.96,51.41,8.64,8.58,17.4,17.1,8.58,8.58,17.4,17.16,25.92,25.74,8.58,8.52,25.98,25.8,17.4,17.1,51.84,51.47,25.98,25.68,77.94,77.21,8.7,8.52,17.22,17.16,8.76,8.58,17.22,17.16,8.76,8.58,17.22,17.16,25.98,25.68,51.96,51.48,8.7,8.52,25.86,25.74,26.1,25.74,17.22,17.16,8.7,8.52,17.28,17.22,8.7,8.52,17.22,17.16,26.04,25.74,25.92,25.74,25.98,25.68,60.54,59.99,17.46,17.16,8.52,8.52,25.98,25.8,20.26,20.02,18.68,18.56,8.76,8.58,11.2,11.13c6.63,6.57,12.84,13.75,18.38,21.23,13.63,18.38,23.42,38.82,29.08,60.72,1.46,5.6,2.56,10.59,3.35,15.39.85,5.05,1.46,9.74,1.83,14.3.49,5.6.73,10.59.73,15.27,0,3.41-.06,6.75-.24,10.16-.24,5.84-.85,11.86-1.83,17.95-5.66,37.72-23,72.1-50.08,99.42l-894.67,903.01Z"/>
  <path class="cls-1" d="M1216.85,2166.34c-22.82,23-51.66,37.3-83.36,41.31-5.72.73-11.38,1.1-16.85,1.1h-.67l-.67.06h-.24c-5.41,0-11.01-.3-16.73-.97-32-3.65-61.09-17.71-84.09-40.52L87.01,1249.03c-29.02-28.66-46.73-66.69-49.89-107.09-.43-4.69-.61-8.88-.61-13.08,0-.55,0-1.22.06-1.76v-.79c.06-13.33,1.7-26.65,4.99-39.55,1.58-6.57,3.59-13.02,6.02-19.35.91-2.37,1.76-4.5,2.74-6.57,1.52-3.77,3.16-7.3,5.23-11.2,7.91-15.21,18.13-29.15,30.3-41.44L1020.26,65.1c18.19-18.38,42.47-28.54,68.33-28.6,7.12,0,13.99.73,20.69,2.19,8.52,1.83,16.55,4.75,24.03,8.7,3.53,1.83,6.63,3.71,9.61,5.72,4.87,3.29,9.49,7.12,13.75,11.32l3.1,3.1,26.04,25.74,51.9,51.48,51.96,51.41,8.64,8.58,17.4,17.1,8.58,8.58,17.4,17.16,25.92,25.74,8.58,8.52,25.98,25.8,17.4,17.1,51.84,51.47,25.98,25.68,77.94,77.21,8.7,8.52,17.22,17.16,8.76,8.58,17.22,17.16,8.76,8.58,17.22,17.16,25.98,25.68,51.96,51.48,8.7,8.52,25.86,25.74,26.1,25.74,17.22,17.16,8.7,8.52,17.28,17.22,8.7,8.52,17.22,17.16,26.04,25.74,25.92,25.74,25.98,25.68,60.54,59.99,17.46,17.16,8.52,8.52,25.98,25.8,20.26,20.02,18.68,18.56,8.76,8.58,11.2,11.13c6.63,6.57,12.84,13.75,18.38,21.23,13.63,18.38,23.42,38.82,29.08,60.72,1.46,5.6,2.56,10.59,3.35,15.39.85,5.05,1.46,9.74,1.83,14.3.49,5.6.73,10.59.73,15.27,0,3.41-.06,6.75-.24,10.16-.24,5.84-.85,11.86-1.83,17.95-5.66,37.72-23,72.1-50.08,99.42l-894.67,903.01Z"/>
  <path class="cls-1" d="M1216.85,2166.34c-22.82,23-51.66,37.3-83.36,41.31-5.72.73-11.38,1.1-16.85,1.1h-.67l-.67.06h-.24c-5.41,0-11.01-.3-16.73-.97-32-3.65-61.09-17.71-84.09-40.52L87.01,1249.03c-29.02-28.66-46.73-66.69-49.89-107.09-.43-4.69-.61-8.88-.61-13.08,0-.55,0-1.22.06-1.76v-.79c.06-13.33,1.7-26.65,4.99-39.55,1.58-6.57,3.59-13.02,6.02-19.35.91-2.37,1.76-4.5,2.74-6.57,1.52-3.77,3.16-7.3,5.23-11.2,7.91-15.21,18.13-29.15,30.3-41.44L1020.26,65.1c18.19-18.38,42.47-28.54,68.33-28.6,7.12,0,13.99.73,20.69,2.19,8.52,1.83,16.55,4.75,24.03,8.7,3.53,1.83,6.63,3.71,9.61,5.72,4.87,3.29,9.49,7.12,13.75,11.32l3.1,3.1,26.04,25.74,51.9,51.48,51.96,51.41,8.64,8.58,17.4,17.1,8.58,8.58,17.4,17.16,25.92,25.74,8.58,8.52,25.98,25.8,17.4,17.1,51.84,51.47,25.98,25.68,77.94,77.21,8.7,8.52,17.22,17.16,8.76,8.58,17.22,17.16,8.76,8.58,17.22,17.16,25.98,25.68,51.96,51.48,8.7,8.52,25.86,25.74,26.1,25.74,17.22,17.16,8.7,8.52,17.28,17.22,8.7,8.52,17.22,17.16,26.04,25.74,25.92,25.74,25.98,25.68,60.54,59.99,17.46,17.16,8.52,8.52,25.98,25.8,20.26,20.02,18.68,18.56,8.76,8.58,11.2,11.13c6.63,6.57,12.84,13.75,18.38,21.23,13.63,18.38,23.42,38.82,29.08,60.72,1.46,5.6,2.56,10.59,3.35,15.39.85,5.05,1.46,9.74,1.83,14.3.49,5.6.73,10.59.73,15.27,0,3.41-.06,6.75-.24,10.16-.24,5.84-.85,11.86-1.83,17.95-5.66,37.72-23,72.1-50.08,99.42l-894.67,903.01Z"/>
  <path class="cls-1" d="M2162.93,1120.53c.49,5.6.73,10.59.73,15.27,0,3.41-.06,6.75-.24,10.16-.24,5.84-.85,11.86-1.83,17.95-5.66,37.72-23,72.1-50.08,99.42l-894.67,903.01c-22.82,23-51.66,37.3-83.36,41.31-5.72.73-11.38,1.1-16.85,1.1h-.67l-.67.06h-.24c-5.41,0-11.01-.3-16.73-.97-32-3.65-61.09-17.71-84.09-40.52L87.01,1249.03c-29.02-28.66-46.73-66.69-49.89-107.09-.43-4.69-.61-8.88-.61-13.08,0-.55,0-1.22.06-1.76v-.79c.06-13.33,1.7-26.65,4.99-39.55,1.58-6.57,3.59-13.02,6.02-19.35.91-2.37,1.76-4.5,2.74-6.57,1.52-3.77,3.16-7.3,5.23-11.2,7.91-15.21,18.13-29.15,30.3-41.44L1020.26,65.1c18.19-18.38,42.47-28.54,68.33-28.6,7.12,0,13.99.73,20.69,2.19,8.52,1.83,16.55,4.75,24.03,8.7,3.53,1.83,6.63,3.71,9.61,5.72,4.87,3.29,9.49,7.12,13.75,11.32l3.1,3.1,26.04,25.74,51.9,51.48,51.96,51.41,8.64,8.58,17.4,17.1,8.58,8.58,17.4,17.16,25.92,25.74,8.58,8.52,25.98,25.8,17.4,17.1,51.84,51.47,25.98,25.68,77.94,77.21,8.7,8.52,17.22,17.16,8.76,8.58,17.22,17.16,8.76,8.58,17.22,17.16,25.98,25.68,51.96,51.48,8.7,8.52,25.86,25.74,26.1,25.74,17.22,17.16,8.7,8.52,17.28,17.22,8.7,8.52,17.22,17.16,26.04,25.74,25.92,25.74,25.98,25.68,60.54,59.99,17.46,17.16,8.52,8.52,25.98,25.8,20.26,20.02,18.68,18.56,8.76,8.58,11.2,11.13c6.63,6.57,12.84,13.75,18.38,21.23,13.63,18.38,23.42,38.82,29.08,60.72,1.46,5.6,2.56,10.59,3.35,15.39.85,5.05,1.46,9.74,1.83,14.3Z"/>
  <path class="cls-1" d="M2163.66,1135.8c0,3.41-.06,6.75-.24,10.16-.24,5.84-.85,11.86-1.83,17.95-5.66,37.72-23,72.1-50.08,99.42l-894.67,903.01c-22.82,23-51.66,37.3-83.36,41.31-5.72.73-11.38,1.1-16.85,1.1h-.67l-.67.06h-.24c-5.41,0-11.01-.3-16.73-.97-32-3.65-61.09-17.71-84.09-40.52L87.01,1249.03c-29.02-28.66-46.73-66.69-49.89-107.09-.43-4.69-.61-8.88-.61-13.08,0-.55,0-1.22.06-1.76v-.79c.06-13.33,1.7-26.65,4.99-39.55,1.58-6.57,3.59-13.02,6.02-19.35.91-2.37,1.76-4.5,2.74-6.57,1.52-3.77,3.16-7.3,5.23-11.2,7.91-15.21,18.13-29.15,30.3-41.44L1020.26,65.1c18.19-18.38,42.47-28.54,68.33-28.6,7.12,0,13.99.73,20.69,2.19,8.52,1.83,16.55,4.75,24.03,8.7,3.53,1.83,6.63,3.71,9.61,5.72,4.87,3.29,9.49,7.12,13.75,11.32l3.1,3.1,26.04,25.74,51.9,51.48,51.96,51.41,8.64,8.58,17.4,17.1,8.58,8.58,17.4,17.16,25.92,25.74,8.58,8.52,25.98,25.8,17.4,17.1,51.84,51.47,25.98,25.68,77.94,77.21,8.7,8.52,17.22,17.16,8.76,8.58,17.22,17.16,8.76,8.58,17.22,17.16,25.98,25.68,51.96,51.48,8.7,8.52,25.86,25.74,26.1,25.74,17.22,17.16,8.7,8.52,17.28,17.22,8.7,8.52,17.22,17.16,26.04,25.74,25.92,25.74,25.98,25.68,60.54,59.99,17.46,17.16,8.52,8.52,25.98,25.8,20.26,20.02,18.68,18.56,8.76,8.58,11.2,11.13c6.63,6.57,12.84,13.75,18.38,21.23,13.63,18.38,23.42,38.82,29.08,60.72,1.46,5.6,2.56,10.59,3.35,15.39.85,5.05,1.46,9.74,1.83,14.3.49,5.6.73,10.59.73,15.27Z"/>
  <path class="cls-1" d="M2163.66,1135.8c0,3.41-.06,6.75-.24,10.16-.24,5.84-.85,11.86-1.83,17.95-5.66,37.72-23,72.1-50.08,99.42l-894.67,903.01c-22.82,23-51.66,37.3-83.36,41.31-5.72.73-11.38,1.1-16.85,1.1h-.67l-.67.06h-.24c-5.41,0-11.01-.3-16.73-.97-32-3.65-61.09-17.71-84.09-40.52L87.01,1249.03c-29.02-28.66-46.73-66.69-49.89-107.09-.43-4.69-.61-8.88-.61-13.08,0-.55,0-1.22.06-1.76v-.79c.06-13.33,1.7-26.65,4.99-39.55,1.58-6.57,3.59-13.02,6.02-19.35.91-2.37,1.76-4.5,2.74-6.57,1.52-3.77,3.16-7.3,5.23-11.2,7.91-15.21,18.13-29.15,30.3-41.44L1020.26,65.1c18.19-18.38,42.47-28.54,68.33-28.6,7.12,0,13.99.73,20.69,2.19,8.52,1.83,16.55,4.75,24.03,8.7,3.53,1.83,6.63,3.71,9.61,5.72,4.87,3.29,9.49,7.12,13.75,11.32l3.1,3.1,26.04,25.74,51.9,51.48,51.96,51.41,8.64,8.58,17.4,17.1,8.58,8.58,17.4,17.16,25.92,25.74,8.58,8.52,25.98,25.8,17.4,17.1,51.84,51.47,25.98,25.68,77.94,77.21,8.7,8.52,17.22,17.16,8.76,8.58,17.22,17.16,8.76,8.58,17.22,17.16,25.98,25.68,51.96,51.48,8.7,8.52,25.86,25.74,26.1,25.74,17.22,17.16,8.7,8.52,17.28,17.22,8.7,8.52,17.22,17.16,26.04,25.74,25.92,25.74,25.98,25.68,60.54,59.99,17.46,17.16,8.52,8.52,25.98,25.8,20.26,20.02,18.68,18.56,8.76,8.58,11.2,11.13c6.63,6.57,12.84,13.75,18.38,21.23,13.63,18.38,23.42,38.82,29.08,60.72,1.46,5.6,2.56,10.59,3.35,15.39.85,5.05,1.46,9.74,1.83,14.3.49,5.6.73,10.59.73,15.27Z"/>
  <path class="cls-1" d="M1216.85,2166.34c-22.82,23-51.66,37.3-83.36,41.31-5.72.73-11.38,1.1-16.85,1.1h-.67l-.67.06h-.24c-5.41,0-11.01-.3-16.73-.97-32-3.65-61.09-17.71-84.09-40.52L87.01,1249.03c-29.02-28.66-46.73-66.69-49.89-107.09-.43-4.69-.61-8.88-.61-13.08,0-.55,0-1.22.06-1.76v-.79c.06-13.33,1.7-26.65,4.99-39.55,1.58-6.57,3.59-13.02,6.02-19.35.91-2.37,1.76-4.5,2.74-6.57,1.52-3.77,3.16-7.3,5.23-11.2,7.91-15.21,18.13-29.15,30.3-41.44L1020.26,65.1c18.19-18.38,42.47-28.54,68.33-28.6,7.12,0,13.99.73,20.69,2.19,8.52,1.83,16.55,4.75,24.03,8.7,3.53,1.83,6.63,3.71,9.61,5.72,4.87,3.29,9.49,7.12,13.75,11.32l3.1,3.1,26.04,25.74,51.9,51.48,51.96,51.41,8.64,8.58,17.4,17.1,8.58,8.58,17.4,17.16,25.92,25.74,8.58,8.52,25.98,25.8,17.4,17.1,51.84,51.47,25.98,25.68,77.94,77.21,8.7,8.52,17.22,17.16,8.76,8.58,17.22,17.16,8.76,8.58,17.22,17.16,25.98,25.68,51.96,51.48,8.7,8.52,25.86,25.74,26.1,25.74,17.22,17.16,8.7,8.52,17.28,17.22,8.7,8.52,17.22,17.16,26.04,25.74,25.92,25.74,25.98,25.68,60.54,59.99,17.46,17.16,8.52,8.52,25.98,25.8,20.26,20.02,18.68,18.56,8.76,8.58,11.2,11.13c6.63,6.57,12.84,13.75,18.38,21.23,13.63,18.38,23.42,38.82,29.08,60.72,1.46,5.6,2.56,10.59,3.35,15.39.85,5.05,1.46,9.74,1.83,14.3.49,5.6.73,10.59.73,15.27,0,3.41-.06,6.75-.24,10.16-.24,5.84-.85,11.86-1.83,17.95-5.66,37.72-23,72.1-50.08,99.42l-894.67,903.01Z"/>
  <path class="cls-1" d="M1216.85,2166.34c-22.82,23-51.66,37.3-83.36,41.31-5.72.73-11.38,1.1-16.85,1.1h-.67l-.67.06h-.24c-5.41,0-11.01-.3-16.73-.97-32-3.65-61.09-17.71-84.09-40.52L87.01,1249.03c-29.02-28.66-46.73-66.69-49.89-107.09-.43-4.69-.61-8.88-.61-13.08,0-.55,0-1.22.06-1.76v-.79c.06-13.33,1.7-26.65,4.99-39.55,1.58-6.57,3.59-13.02,6.02-19.35.91-2.37,1.76-4.5,2.74-6.57,1.52-3.77,3.16-7.3,5.23-11.2,7.91-15.21,18.13-29.15,30.3-41.44L1020.26,65.1c18.19-18.38,42.47-28.54,68.33-28.6,7.12,0,13.99.73,20.69,2.19,8.52,1.83,16.55,4.75,24.03,8.7,3.53,1.83,6.63,3.71,9.61,5.72,4.87,3.29,9.49,7.12,13.75,11.32l3.1,3.1,26.04,25.74,51.9,51.48,51.96,51.41,8.64,8.58,17.4,17.1,8.58,8.58,17.4,17.16,25.92,25.74,8.58,8.52,25.98,25.8,17.4,17.1,51.84,51.47,25.98,25.68,77.94,77.21,8.7,8.52,17.22,17.16,8.76,8.58,17.22,17.16,8.76,8.58,17.22,17.16,25.98,25.68,51.96,51.48,8.7,8.52,25.86,25.74,26.1,25.74,17.22,17.16,8.7,8.52,17.28,17.22,8.7,8.52,17.22,17.16,26.04,25.74,25.92,25.74,25.98,25.68,60.54,59.99,17.46,17.16,8.52,8.52,25.98,25.8,20.26,20.02,18.68,18.56,8.76,8.58,11.2,11.13c6.63,6.57,12.84,13.75,18.38,21.23,13.63,18.38,23.42,38.82,29.08,60.72,1.46,5.6,2.56,10.59,3.35,15.39.85,5.05,1.46,9.74,1.83,14.3.49,5.6.73,10.59.73,15.27,0,3.41-.06,6.75-.24,10.16-.24,5.84-.85,11.86-1.83,17.95-5.66,37.72-23,72.1-50.08,99.42l-894.67,903.01Z"/>
  <path class="cls-1" d="M1216.85,2166.34c-22.82,23-51.66,37.3-83.36,41.31-5.72.73-11.38,1.1-16.85,1.1h-.67l-.67.06h-.24c-5.41,0-11.01-.3-16.73-.97-32-3.65-61.09-17.71-84.09-40.52L87.01,1249.03c-29.02-28.66-46.73-66.69-49.89-107.09-.43-4.69-.61-8.88-.61-13.08,0-.55,0-1.22.06-1.76v-.79c.06-13.33,1.7-26.65,4.99-39.55,1.58-6.57,3.59-13.02,6.02-19.35.91-2.37,1.76-4.5,2.74-6.57,1.52-3.77,3.16-7.3,5.23-11.2,7.91-15.21,18.13-29.15,30.3-41.44L1020.26,65.1c18.19-18.38,42.47-28.54,68.33-28.6,7.12,0,13.99.73,20.69,2.19,8.52,1.83,16.55,4.75,24.03,8.7,3.53,1.83,6.63,3.71,9.61,5.72,4.87,3.29,9.49,7.12,13.75,11.32l3.1,3.1,26.04,25.74,51.9,51.48,51.96,51.41,8.64,8.58,17.4,17.1,8.58,8.58,17.4,17.16,25.92,25.74,8.58,8.52,25.98,25.8,17.4,17.1,51.84,51.47,25.98,25.68,77.94,77.21,8.7,8.52,17.22,17.16,8.76,8.58,17.22,17.16,8.76,8.58,17.22,17.16,25.98,25.68,51.96,51.48,8.7,8.52,25.86,25.74,26.1,25.74,17.22,17.16,8.7,8.52,17.28,17.22,8.7,8.52,17.22,17.16,26.04,25.74,25.92,25.74,25.98,25.68,60.54,59.99,17.46,17.16,8.52,8.52,25.98,25.8,20.26,20.02,18.68,18.56,8.76,8.58,11.2,11.13c6.63,6.57,12.84,13.75,18.38,21.23,13.63,18.38,23.42,38.82,29.08,60.72,1.46,5.6,2.56,10.59,3.35,15.39.85,5.05,1.46,9.74,1.83,14.3.49,5.6.73,10.59.73,15.27,0,3.41-.06,6.75-.24,10.16-.24,5.84-.85,11.86-1.83,17.95-5.66,37.72-23,72.1-50.08,99.42l-894.67,903.01Z"/>
  <path class="cls-1" d="M2162.93,1120.53c.49,5.6.73,10.59.73,15.27,0,3.41-.06,6.75-.24,10.16-.24,5.84-.85,11.86-1.83,17.95-5.66,37.72-23,72.1-50.08,99.42l-894.67,903.01c-22.82,23-51.66,37.3-83.36,41.31-5.72.73-11.38,1.1-16.85,1.1h-.67l-.67.06h-.24c-5.41,0-11.01-.3-16.73-.97-32-3.65-61.09-17.71-84.09-40.52L87.01,1249.03c-29.02-28.66-46.73-66.69-49.89-107.09-.43-4.69-.61-8.88-.61-13.08,0-.55,0-1.22.06-1.76v-.79c.06-13.33,1.7-26.65,4.99-39.55,1.58-6.57,3.59-13.02,6.02-19.35.91-2.37,1.76-4.5,2.74-6.57,1.52-3.77,3.16-7.3,5.23-11.2,7.91-15.21,18.13-29.15,30.3-41.44L1020.26,65.1c18.19-18.38,42.47-28.54,68.33-28.6,7.12,0,13.99.73,20.69,2.19,8.52,1.83,16.55,4.75,24.03,8.7,3.53,1.83,6.63,3.71,9.61,5.72,4.87,3.29,9.49,7.12,13.75,11.32l3.1,3.1,26.04,25.74,51.9,51.48,51.96,51.41,8.64,8.58,17.4,17.1,8.58,8.58,17.4,17.16,25.92,25.74,8.58,8.52,25.98,25.8,17.4,17.1,51.84,51.47,25.98,25.68,77.94,77.21,8.7,8.52,17.22,17.16,8.76,8.58,17.22,17.16,8.76,8.58,17.22,17.16,25.98,25.68,51.96,51.48,8.7,8.52,25.86,25.74,26.1,25.74,17.22,17.16,8.7,8.52,17.28,17.22,8.7,8.52,17.22,17.16,26.04,25.74,25.92,25.74,25.98,25.68,60.54,59.99,17.46,17.16,8.52,8.52,25.98,25.8,20.26,20.02,18.68,18.56,8.76,8.58,11.2,11.13c6.63,6.57,12.84,13.75,18.38,21.23,13.63,18.38,23.42,38.82,29.08,60.72,1.46,5.6,2.56,10.59,3.35,15.39.85,5.05,1.46,9.74,1.83,14.3Z"/>
  <path class="cls-1" d="M2163.66,1135.8c0,3.41-.06,6.75-.24,10.16-.24,5.84-.85,11.86-1.83,17.95-5.66,37.72-23,72.1-50.08,99.42l-894.67,903.01c-22.82,23-51.66,37.3-83.36,41.31-5.72.73-11.38,1.1-16.85,1.1h-.67l-.67.06h-.24c-5.41,0-11.01-.3-16.73-.97-32-3.65-61.09-17.71-84.09-40.52L87.01,1249.03c-29.02-28.66-46.73-66.69-49.89-107.09-.43-4.69-.61-8.88-.61-13.08,0-.55,0-1.22.06-1.76v-.79c.06-13.33,1.7-26.65,4.99-39.55,1.58-6.57,3.59-13.02,6.02-19.35.91-2.37,1.76-4.5,2.74-6.57,1.52-3.77,3.16-7.3,5.23-11.2,7.91-15.21,18.13-29.15,30.3-41.44L1020.26,65.1c18.19-18.38,42.47-28.54,68.33-28.6,7.12,0,13.99.73,20.69,2.19,8.52,1.83,16.55,4.75,24.03,8.7,3.53,1.83,6.63,3.71,9.61,5.72,4.87,3.29,9.49,7.12,13.75,11.32l3.1,3.1,26.04,25.74,51.9,51.48,51.96,51.41,8.64,8.58,17.4,17.1,8.58,8.58,17.4,17.16,25.92,25.74,8.58,8.52,25.98,25.8,17.4,17.1,51.84,51.47,25.98,25.68,77.94,77.21,8.7,8.52,17.22,17.16,8.76,8.58,17.22,17.16,8.76,8.58,17.22,17.16,25.98,25.68,51.96,51.48,8.7,8.52,25.86,25.74,26.1,25.74,17.22,17.16,8.7,8.52,17.28,17.22,8.7,8.52,17.22,17.16,26.04,25.74,25.92,25.74,25.98,25.68,60.54,59.99,17.46,17.16,8.52,8.52,25.98,25.8,20.26,20.02,18.68,18.56,8.76,8.58,11.2,11.13c6.63,6.57,12.84,13.75,18.38,21.23,13.63,18.38,23.42,38.82,29.08,60.72,1.46,5.6,2.56,10.59,3.35,15.39.85,5.05,1.46,9.74,1.83,14.3.49,5.6.73,10.59.73,15.27Z"/>
  <path class="cls-1" d="M2163.66,1135.8c0,3.41-.06,6.75-.24,10.16-.24,5.84-.85,11.86-1.83,17.95-5.66,37.72-23,72.1-50.08,99.42l-894.67,903.01c-22.82,23-51.66,37.3-83.36,41.31-5.72.73-11.38,1.1-16.85,1.1h-.67l-.67.06h-.24c-5.41,0-11.01-.3-16.73-.97-32-3.65-61.09-17.71-84.09-40.52L87.01,1249.03c-29.02-28.66-46.73-66.69-49.89-107.09-.43-4.69-.61-8.88-.61-13.08,0-.55,0-1.22.06-1.76v-.79c.06-13.33,1.7-26.65,4.99-39.55,1.58-6.57,3.59-13.02,6.02-19.35.91-2.37,1.76-4.5,2.74-6.57,1.52-3.77,3.16-7.3,5.23-11.2,7.91-15.21,18.13-29.15,30.3-41.44L1020.26,65.1c18.19-18.38,42.47-28.54,68.33-28.6,7.12,0,13.99.73,20.69,2.19,8.52,1.83,16.55,4.75,24.03,8.7,3.53,1.83,6.63,3.71,9.61,5.72,4.87,3.29,9.49,7.12,13.75,11.32l3.1,3.1,26.04,25.74,51.9,51.48,51.96,51.41,8.64,8.58,17.4,17.1,8.58,8.58,17.4,17.16,25.92,25.74,8.58,8.52,25.98,25.8,17.4,17.1,51.84,51.47,25.98,25.68,77.94,77.21,8.7,8.52,17.22,17.16,8.76,8.58,17.22,17.16,8.76,8.58,17.22,17.16,25.98,25.68,51.96,51.48,8.7,8.52,25.86,25.74,26.1,25.74,17.22,17.16,8.7,8.52,17.28,17.22,8.7,8.52,17.22,17.16,26.04,25.74,25.92,25.74,25.98,25.68,60.54,59.99,17.46,17.16,8.52,8.52,25.98,25.8,20.26,20.02,18.68,18.56,8.76,8.58,11.2,11.13c6.63,6.57,12.84,13.75,18.38,21.23,13.63,18.38,23.42,38.82,29.08,60.72,1.46,5.6,2.56,10.59,3.35,15.39.85,5.05,1.46,9.74,1.83,14.3.49,5.6.73,10.59.73,15.27Z"/>
  <polygon class="cls-1" points="1447.76 1654.93 1417.09 1654.93 1415.93 1653.78 1426.76 1642.76 1435.59 1642.76 1435.59 1639.42 1447.76 1651.83 1447.76 1654.93"/>
  <polygon class="cls-1" points="806.14 589.29 817.76 589.29 829.69 601.46 818.31 601.46 818.31 620.56 816.49 622.39 806.14 611.86 806.14 589.29"/>
  <polygon class="cls-1" points="818.31 635.71 829.57 635.71 836.62 642.89 827.92 651.47 818.31 641.67 818.31 635.71"/>
  <polygon class="cls-1" points="849.1 589.29 841.92 596.59 834.74 589.29 849.1 589.29"/>
  <polygon class="cls-1" points="1441.37 1627.92 1447.76 1621.41 1447.76 1634.43 1441.37 1627.92"/>
  <polygon class="cls-1" points="806.14 629.26 807.9 631.09 806.14 632.85 790.99 648.25 678.43 533.55 695.34 516.39 806.14 629.26"/>
  <polygon class="cls-1" points="1447.76 589.29 1447.76 606.45 1446.54 607.66 1429.38 590.38 1430.48 589.29 1447.76 589.29"/>
  <path class="cls-1" d="M1216.85,2166.34c-22.82,23-51.66,37.3-83.36,41.31-5.72.73-11.38,1.1-16.85,1.1h-.67l-.67.06h-.24c-5.41,0-11.01-.3-16.73-.97-32-3.65-61.09-17.71-84.09-40.52L87.01,1249.03c-29.02-28.66-46.73-66.69-49.89-107.09-.43-4.69-.61-8.88-.61-13.08,0-.55,0-1.22.06-1.76v-.79c.06-13.33,1.7-26.65,4.99-39.55,1.58-6.57,3.59-13.02,6.02-19.35.91-2.37,1.76-4.5,2.74-6.57,1.52-3.77,3.16-7.3,5.23-11.2,7.91-15.21,18.13-29.15,30.3-41.44L1020.26,65.1c18.19-18.38,42.47-28.54,68.33-28.6,7.12,0,13.99.73,20.69,2.19,8.52,1.83,16.55,4.75,24.03,8.7,3.53,1.83,6.63,3.71,9.61,5.72,4.87,3.29,9.49,7.12,13.75,11.32l3.1,3.1,26.04,25.74,51.9,51.48,51.96,51.41,8.64,8.58,17.4,17.1,8.58,8.58,17.4,17.16,25.92,25.74,8.58,8.52,25.98,25.8,17.4,17.1,51.84,51.47,25.98,25.68,77.94,77.21,8.7,8.52,17.22,17.16,8.76,8.58,17.22,17.16,8.76,8.58,17.22,17.16,25.98,25.68,51.96,51.48,8.7,8.52,25.86,25.74,26.1,25.74,17.22,17.16,8.7,8.52,17.28,17.22,8.7,8.52,17.22,17.16,26.04,25.74,25.92,25.74,25.98,25.68,60.54,59.99,17.46,17.16,8.52,8.52,25.98,25.8,20.26,20.02,18.68,18.56,8.76,8.58,11.2,11.13c6.63,6.57,12.84,13.75,18.38,21.23,13.63,18.38,23.42,38.82,29.08,60.72,1.46,5.6,2.56,10.59,3.35,15.39.85,5.05,1.46,9.74,1.83,14.3.49,5.6.73,10.59.73,15.27,0,3.41-.06,6.75-.24,10.16-.24,5.84-.85,11.86-1.83,17.95-5.66,37.72-23,72.1-50.08,99.42l-894.67,903.01Z"/>
  <path class="cls-1" d="M1216.85,2166.34c-22.82,23-51.66,37.3-83.36,41.31-5.72.73-11.38,1.1-16.85,1.1h-.67l-.67.06h-.24c-5.41,0-11.01-.3-16.73-.97-32-3.65-61.09-17.71-84.09-40.52L87.01,1249.03c-29.02-28.66-46.73-66.69-49.89-107.09-.43-4.69-.61-8.88-.61-13.08,0-.55,0-1.22.06-1.76v-.79c.06-13.33,1.7-26.65,4.99-39.55,1.58-6.57,3.59-13.02,6.02-19.35.91-2.37,1.76-4.5,2.74-6.57,1.52-3.77,3.16-7.3,5.23-11.2,7.91-15.21,18.13-29.15,30.3-41.44L1020.26,65.1c18.19-18.38,42.47-28.54,68.33-28.6,7.12,0,13.99.73,20.69,2.19,8.52,1.83,16.55,4.75,24.03,8.7,3.53,1.83,6.63,3.71,9.61,5.72,4.87,3.29,9.49,7.12,13.75,11.32l3.1,3.1,26.04,25.74,51.9,51.48,51.96,51.41,8.64,8.58,17.4,17.1,8.58,8.58,17.4,17.16,25.92,25.74,8.58,8.52,25.98,25.8,17.4,17.1,51.84,51.47,25.98,25.68,77.94,77.21,8.7,8.52,17.22,17.16,8.76,8.58,17.22,17.16,8.76,8.58,17.22,17.16,25.98,25.68,51.96,51.48,8.7,8.52,25.86,25.74,26.1,25.74,17.22,17.16,8.7,8.52,17.28,17.22,8.7,8.52,17.22,17.16,26.04,25.74,25.92,25.74,25.98,25.68,60.54,59.99,17.46,17.16,8.52,8.52,25.98,25.8,20.26,20.02,18.68,18.56,8.76,8.58,11.2,11.13c6.63,6.57,12.84,13.75,18.38,21.23,13.63,18.38,23.42,38.82,29.08,60.72,1.46,5.6,2.56,10.59,3.35,15.39.85,5.05,1.46,9.74,1.83,14.3.49,5.6.73,10.59.73,15.27,0,3.41-.06,6.75-.24,10.16-.24,5.84-.85,11.86-1.83,17.95-5.66,37.72-23,72.1-50.08,99.42l-894.67,903.01Z"/>
  <path class="cls-2" d="M2199.32,1117.55c-.49-5.6-1.22-11.32-2.19-17.28-.97-5.84-2.31-11.93-4.02-18.62-6.88-26.41-18.68-51.11-35.11-73.26-6.63-9-14.06-17.58-21.97-25.43l-11.38-11.32-8.58-8.4-10.04-9.98-54.82-54.27-8.7-8.7-17.34-17.1-60.6-60.05-25.92-25.62-25.98-25.74-25.98-25.74-17.34-17.22-8.58-8.46-17.4-17.28-8.58-8.46-17.34-17.22-25.98-25.68-25.98-25.8-8.64-8.46-51.96-51.47-25.92-25.68-17.34-17.22-8.64-8.52-17.34-17.22-8.64-8.52-17.34-17.22-8.64-8.46-77.94-77.21-25.92-25.68-51.96-51.54-17.28-17.04-25.92-25.68-8.7-8.64-25.98-25.8-17.22-16.98-8.76-8.76-17.28-17.04-34.62-34.26-25.98-25.74-51.96-51.54-25.86-25.56-3.29-3.29c-5.84-5.78-12.17-10.95-18.8-15.45-4.14-2.86-8.46-5.42-13.14-7.91-10.47-5.54-21.72-9.55-33.28-12.05-9.25-2.01-18.86-3.04-28.6-3.04-35.6.06-69.06,14.06-94.19,39.43L59.93,982.47c-14.79,14.91-27.14,31.82-36.69,50.2-2.56,4.87-4.69,9.43-6.08,12.84-1.4,2.98-2.62,6.08-3.59,8.76-3.04,7.85-5.54,15.76-7.42,23.55-3.95,15.7-5.96,31.7-6.08,47.28-.06,1.22-.06,2.56-.06,3.77,0,5.29.24,10.59.73,15.94,3.89,49.16,25.37,95.34,60.54,130.15l927.22,918.28c28.9,28.66,65.47,46.24,105.81,50.93,7.06.73,14.06,1.16,20.75,1.16.91,0,1.83,0,2.37-.06,6.75,0,13.75-.49,20.63-1.4,39.85-5.05,76.06-22.94,104.71-51.78l894.67-903.01c32.61-32.86,53.42-74.23,60.24-119.62,1.16-7.3,1.89-14.6,2.19-21.6.24-4.02.3-8.03.3-12.05,0-5.84-.3-11.8-.85-18.25ZM2193.84,1147.48c-.37,6.81-1.09,13.93-2.13,21.05-6.63,44.05-26.89,84.27-58.59,116.21l-894.67,903.01c-27.68,27.87-62.67,45.21-101.12,50.08-6.63.85-13.39,1.34-19.96,1.34-.79.06-1.52.06-2.31.06-6.51,0-13.26-.37-20.08-1.16-38.94-4.44-74.29-21.48-102.16-49.16L65.59,1270.63c-34.13-33.77-55.06-78.61-58.78-126.31-.49-5.23-.73-10.34-.73-15.45,0-1.1,0-2.31.06-3.47.12-15.33,2.07-30.85,5.9-46.06,1.82-7.61,4.26-15.33,7.18-22.88.97-2.68,2.13-5.54,3.47-8.4,1.4-3.41,3.47-7.85,5.9-12.53,9.31-17.89,21.3-34.26,35.66-48.74L998.66,43.69c23.97-24.16,55.86-37.54,89.87-37.6,9.31,0,18.44.97,27.26,2.92,11.07,2.31,21.78,6.21,31.76,11.5,4.5,2.31,8.64,4.81,12.6,7.54,6.27,4.26,12.35,9.25,17.95,14.79l3.22,3.22,25.92,25.62,51.9,51.48,26.04,25.74,34.56,34.26,17.34,17.04,8.7,8.76,17.28,16.98,25.98,25.8,8.64,8.64,25.92,25.68,17.34,17.04,51.9,51.54,25.98,25.68,77.94,77.21,8.64,8.46,17.28,17.22,8.7,8.52,17.28,17.22,8.7,8.52,17.28,17.22,25.98,25.68,51.96,51.48,8.64,8.46,25.92,25.8,26.04,25.74,17.28,17.16,8.64,8.46,17.34,17.28,8.64,8.46,17.28,17.22,26.04,25.74,25.92,25.74,25.98,25.68,60.54,59.99,17.4,17.1,8.64,8.7,54.82,54.27,10.1,9.98,8.58,8.46,11.38,11.26c7.67,7.67,14.85,16,21.36,24.7,15.94,21.6,27.44,45.51,34.07,71.19,1.7,6.57,2.98,12.47,3.89,18.07.97,5.78,1.7,11.32,2.13,16.79.55,6.33.85,12.17.85,17.77,0,3.89-.06,7.79-.24,11.68Z"/>
  <path class="cls-1" d="M1216.85,2166.34c-22.82,23-51.66,37.3-83.36,41.31-5.72.73-11.38,1.1-16.85,1.1h-.67l-.67.06h-.24c-5.41,0-11.01-.3-16.73-.97-32-3.65-61.09-17.71-84.09-40.52L87.01,1249.03c-29.02-28.66-46.73-66.69-49.89-107.09-.43-4.69-.61-8.88-.61-13.08,0-.55,0-1.22.06-1.76v-.79c.06-13.33,1.7-26.65,4.99-39.55,1.58-6.57,3.59-13.02,6.02-19.35.91-2.37,1.76-4.5,2.74-6.57,1.52-3.77,3.16-7.3,5.23-11.2,7.91-15.21,18.13-29.15,30.3-41.44L1020.26,65.1c18.19-18.38,42.47-28.54,68.33-28.6,7.12,0,13.99.73,20.69,2.19,8.52,1.83,16.55,4.75,24.03,8.7,3.53,1.83,6.63,3.71,9.61,5.72,4.87,3.29,9.49,7.12,13.75,11.32l3.1,3.1,26.04,25.74,51.9,51.48,51.96,51.41,8.64,8.58,17.4,17.1,8.58,8.58,17.4,17.16,25.92,25.74,8.58,8.52,25.98,25.8,17.4,17.1,51.84,51.47,25.98,25.68,77.94,77.21,8.7,8.52,17.22,17.16,8.76,8.58,17.22,17.16,8.76,8.58,17.22,17.16,25.98,25.68,51.96,51.48,8.7,8.52,25.86,25.74,26.1,25.74,17.22,17.16,8.7,8.52,17.28,17.22,8.7,8.52,17.22,17.16,26.04,25.74,25.92,25.74,25.98,25.68,60.54,59.99,17.46,17.16,8.52,8.52,25.98,25.8,20.26,20.02,18.68,18.56,8.76,8.58,11.2,11.13c6.63,6.57,12.84,13.75,18.38,21.23,13.63,18.38,23.42,38.82,29.08,60.72,1.46,5.6,2.56,10.59,3.35,15.39.85,5.05,1.46,9.74,1.83,14.3.49,5.6.73,10.59.73,15.27,0,3.41-.06,6.75-.24,10.16-.24,5.84-.85,11.86-1.83,17.95-5.66,37.72-23,72.1-50.08,99.42l-894.67,903.01Z"/>
  <path class="cls-2" d="M2193.23,1118.03c-.43-5.48-1.16-11.01-2.13-16.79-.91-5.6-2.19-11.5-3.89-18.07-6.63-25.68-18.13-49.59-34.07-71.19-6.51-8.7-13.69-17.04-21.36-24.7l-11.38-11.26-8.58-8.46-10.1-9.98-54.82-54.27-8.64-8.7-17.4-17.1-60.54-59.99-25.98-25.68-25.92-25.74-26.04-25.74-17.28-17.22-8.64-8.46-17.34-17.28-8.64-8.46-17.28-17.16-26.04-25.74-25.92-25.8-8.64-8.46-51.96-51.48-25.98-25.68-17.28-17.22-8.7-8.52-17.28-17.22-8.7-8.52-17.28-17.22-8.64-8.46-77.94-77.21-25.98-25.68-51.9-51.54-17.34-17.04-25.92-25.68-8.64-8.64-25.98-25.8-17.28-16.98-8.7-8.76-17.34-17.04-34.56-34.26-26.04-25.74-51.9-51.48-25.92-25.62-3.22-3.22c-5.6-5.54-11.68-10.53-17.95-14.79-3.96-2.74-8.09-5.23-12.6-7.54-9.98-5.29-20.69-9.19-31.76-11.5-8.82-1.95-17.95-2.92-27.26-2.92-34.01.06-65.9,13.45-89.87,37.6L64.25,986.79c-14.36,14.48-26.35,30.85-35.66,48.74-2.43,4.68-4.5,9.13-5.9,12.53-1.34,2.86-2.5,5.72-3.47,8.4-2.92,7.54-5.36,15.27-7.18,22.88-3.83,15.21-5.78,30.73-5.9,46.06-.06,1.16-.06,2.37-.06,3.47,0,5.11.24,10.22.73,15.45,3.71,47.7,24.64,92.55,58.78,126.31l927.22,918.28c27.87,27.68,63.22,44.72,102.16,49.16,6.81.79,13.57,1.16,20.08,1.16.79,0,1.52,0,2.31-.06,6.57,0,13.32-.49,19.96-1.34,38.45-4.87,73.44-22.21,101.12-50.08l894.67-903.01c31.7-31.94,51.96-72.16,58.59-116.21,1.03-7.12,1.76-14.24,2.13-21.05.18-3.89.24-7.79.24-11.68,0-5.6-.3-11.44-.85-17.77ZM2181.67,1146.87c-.3,6.45-.97,13.14-2.01,19.77-6.27,41.56-25.37,79.46-55.19,109.52l-894.67,903.01c-25.74,25.92-58.23,42.04-94.01,46.55-6.33.85-12.66,1.28-18.86,1.28-.67.06-1.22.06-1.89.06-6.08,0-12.35-.37-18.74-1.1-36.2-4.14-69-19.96-94.92-45.69L74.17,1261.99c-32.13-31.7-51.72-73.81-55.25-118.59-.43-5.05-.67-9.8-.67-14.54,0-.97,0-2.07.06-3.04.06-14.42,1.95-29.21,5.54-43.5,1.7-7.18,4.02-14.42,6.75-21.48.91-2.56,1.95-5.11,3.1-7.67,1.46-3.59,3.35-7.61,5.66-11.99,8.76-16.85,20.02-32.25,33.53-45.82L1007.3,52.27c21.66-21.9,50.5-33.95,81.29-34.01,8.46,0,16.61.91,24.58,2.62,10.04,2.13,19.72,5.6,28.72,10.4,4.08,2.13,7.79,4.32,11.38,6.82,5.66,3.83,11.2,8.34,16.25,13.39l3.22,3.16,25.92,25.68,51.96,51.48,25.98,25.74,34.62,34.26,17.28,17.1,8.7,8.64,17.28,17.1,25.98,25.74,8.64,8.58,25.92,25.74,17.34,17.1,51.96,51.47,25.92,25.68,77.94,77.21,8.64,8.52,17.34,17.16,8.64,8.58,17.28,17.16,8.7,8.58,17.28,17.16,25.98,25.68,51.96,51.47,8.64,8.52,25.92,25.74,26.04,25.74,17.28,17.16,8.64,8.52,17.4,17.22,8.58,8.52,17.34,17.16,25.98,25.74,25.92,25.74,25.98,25.68,60.54,59.99,17.4,17.16,8.64,8.58,54.82,54.33,10.1,9.98,8.64,8.52,11.32,11.2c7.24,7.24,14.06,15.09,20.14,23.36,15.03,20.26,25.8,42.84,32.13,66.99,1.58,6.08,2.74,11.62,3.65,16.98.91,5.54,1.58,10.71,2.01,15.82.55,5.96.79,11.44.79,16.73,0,3.71-.06,7.36-.24,11.07Z"/>
  <path class="cls-1" d="M2162.93,1120.53c.49,5.6.73,10.59.73,15.27,0,3.41-.06,6.75-.24,10.16-.24,5.84-.85,11.86-1.83,17.95-5.66,37.72-23,72.1-50.08,99.42l-894.67,903.01c-22.82,23-51.66,37.3-83.36,41.31-5.72.73-11.38,1.1-16.85,1.1h-.67l-.67.06h-.24c-5.41,0-11.01-.3-16.73-.97-32-3.65-61.09-17.71-84.09-40.52L87.01,1249.03c-29.02-28.66-46.73-66.69-49.89-107.09-.43-4.69-.61-8.88-.61-13.08,0-.55,0-1.22.06-1.76v-.79c.06-13.33,1.7-26.65,4.99-39.55,1.58-6.57,3.59-13.02,6.02-19.35.91-2.37,1.76-4.5,2.74-6.57,1.52-3.77,3.16-7.3,5.23-11.2,7.91-15.21,18.13-29.15,30.3-41.44L1020.26,65.1c18.19-18.38,42.47-28.54,68.33-28.6,7.12,0,13.99.73,20.69,2.19,8.52,1.83,16.55,4.75,24.03,8.7,3.53,1.83,6.63,3.71,9.61,5.72,4.87,3.29,9.49,7.12,13.75,11.32l3.1,3.1,26.04,25.74,51.9,51.48,51.96,51.41,8.64,8.58,17.4,17.1,8.58,8.58,17.4,17.16,25.92,25.74,8.58,8.52,25.98,25.8,17.4,17.1,51.84,51.47,25.98,25.68,77.94,77.21,8.7,8.52,17.22,17.16,8.76,8.58,17.22,17.16,8.76,8.58,17.22,17.16,25.98,25.68,51.96,51.48,8.7,8.52,25.86,25.74,26.1,25.74,17.22,17.16,8.7,8.52,17.28,17.22,8.7,8.52,17.22,17.16,26.04,25.74,25.92,25.74,25.98,25.68,60.54,59.99,17.46,17.16,8.52,8.52,25.98,25.8,20.26,20.02,18.68,18.56,8.76,8.58,11.2,11.13c6.63,6.57,12.84,13.75,18.38,21.23,13.63,18.38,23.42,38.82,29.08,60.72,1.46,5.6,2.56,10.59,3.35,15.39.85,5.05,1.46,9.74,1.83,14.3Z"/>
  <path class="cls-2" d="M2181.12,1119.07c-.42-5.11-1.09-10.28-2.01-15.82-.91-5.35-2.07-10.89-3.65-16.98-6.33-24.16-17.1-46.73-32.13-66.99-6.08-8.27-12.9-16.12-20.14-23.36l-11.32-11.2-8.64-8.52-10.1-9.98-54.82-54.33-8.64-8.58-17.4-17.16-60.54-59.99-25.98-25.68-25.92-25.74-25.98-25.74-17.34-17.16-8.58-8.52-17.4-17.22-8.64-8.52-17.28-17.16-26.04-25.74-25.92-25.74-8.64-8.52-51.96-51.47-25.98-25.68-17.28-17.16-8.7-8.58-17.28-17.16-8.64-8.58-17.34-17.16-8.64-8.52-77.94-77.21-25.92-25.68-51.96-51.47-17.34-17.1-25.92-25.74-8.64-8.58-25.98-25.74-17.28-17.1-8.7-8.64-17.28-17.1-34.62-34.26-25.98-25.74-51.96-51.48-25.92-25.68-3.22-3.16c-5.05-5.05-10.59-9.55-16.25-13.39-3.59-2.49-7.3-4.69-11.38-6.82-9-4.81-18.68-8.27-28.72-10.4-7.97-1.7-16.12-2.62-24.58-2.62-30.79.06-59.63,12.11-81.29,34.01L72.89,995.37c-13.51,13.57-24.76,28.96-33.53,45.82-2.31,4.38-4.2,8.4-5.66,11.99-1.16,2.56-2.19,5.11-3.1,7.67-2.74,7.06-5.05,14.3-6.75,21.48-3.59,14.3-5.48,29.08-5.54,43.5-.06.97-.06,2.07-.06,3.04,0,4.75.24,9.49.67,14.54,3.53,44.78,23.12,86.89,55.25,118.59l927.22,918.28c25.92,25.74,58.72,41.56,94.92,45.69,6.39.73,12.65,1.1,18.74,1.1.67,0,1.22,0,1.89-.06,6.21,0,12.53-.43,18.86-1.28,35.78-4.5,68.27-20.63,94.01-46.55l894.67-903.01c29.81-30.06,48.92-67.96,55.19-109.52,1.03-6.63,1.7-13.33,2.01-19.77.18-3.71.24-7.36.24-11.07,0-5.29-.24-10.77-.79-16.73ZM2175.59,1146.57c-.3,6.45-.97,12.84-1.95,19.17-6.02,40.04-24.46,76.91-53.48,106.18l-894.67,903.01c-24.7,24.89-56.28,40.46-90.48,44.78-6.02.79-12.17,1.22-18.38,1.22-.55.06-1.03.06-1.58.06-6.08,0-12.11-.37-18.07-1.03-34.44-3.96-66.38-19.23-91.33-43.99L78.43,1257.67c-31.34-30.97-50.01-71.31-53.42-114.75-.43-4.62-.67-9.31-.67-14.06,0-.85,0-1.76.06-2.62.06-14.48,1.89-28.72,5.36-42.47,1.7-7.06,3.89-13.99,6.51-20.75.91-2.49,1.89-4.93,2.98-7.3,1.64-4.02,3.53-7.91,5.54-11.74,8.4-16.12,19.29-31.09,32.43-44.36L1011.62,56.53c20.51-20.69,47.83-32.13,76.97-32.19h.24c7.85,0,15.58.85,23.06,2.49,9.49,2.01,18.62,5.29,27.14,9.8,3.71,1.95,7.3,4.08,10.77,6.45,5.48,3.71,10.65,7.97,15.45,12.72l3.16,3.16,8.7,8.58,17.28,17.1,8.64,8.58,17.34,17.16,8.64,8.58,17.28,17.16,8.64,8.52,17.4,17.22,8.58,8.52,17.34,17.16,8.64,8.58,17.34,17.1,8.64,8.64,17.34,17.1,8.64,8.58,17.34,17.16,8.58,8.58,17.34,17.16,8.64,8.58,17.34,17.1,8.64,8.58,17.34,17.16,8.64,8.58,17.28,17.16,8.7,8.58,17.28,17.1,8.64,8.58,17.34,17.16,8.64,8.58,17.34,17.16,8.64,8.58,17.34,17.16,8.64,8.52,17.28,17.16,8.7,8.58,17.28,17.16,8.7,8.58,17.28,17.16,8.7,8.58,17.28,17.1,8.64,8.58,17.34,17.16,8.64,8.58,17.34,17.16,8.64,8.52,17.28,17.16,8.64,8.58,17.34,17.16,8.7,8.58,17.28,17.16,8.64,8.52,17.34,17.22,8.64,8.52,17.28,17.16,8.7,8.58,17.34,17.16,8.58,8.52,17.34,17.22,8.64,8.52,17.34,17.16,8.64,8.58,17.34,17.16,8.64,8.58,17.28,17.1,8.64,8.58,17.4,17.16,8.58,8.58,17.34,17.16,8.64,8.58,20.26,20.02,8.64,8.58,10.04,9.98,8.7,8.52,11.26,11.2c7.18,7.12,13.69,14.66,19.59,22.63,14.48,19.59,25.01,41.56,31.09,64.92,1.4,5.42,2.62,10.89,3.53,16.43.85,5.05,1.52,10.16,1.95,15.33.49,5.35.79,10.77.79,16.25,0,3.59-.06,7.18-.24,10.77Z"/>
  <path class="cls-1" d="M2163.66,1135.8c0,3.41-.06,6.75-.24,10.16-.24,5.84-.85,11.86-1.83,17.95-5.66,37.72-23,72.1-50.08,99.42l-894.67,903.01c-22.82,23-51.66,37.3-83.36,41.31-5.72.73-11.38,1.1-16.85,1.1h-.67l-.67.06h-.24c-5.41,0-11.01-.3-16.73-.97-32-3.65-61.09-17.71-84.09-40.52L87.01,1249.03c-29.02-28.66-46.73-66.69-49.89-107.09-.43-4.69-.61-8.88-.61-13.08,0-.55,0-1.22.06-1.76v-.79c.06-13.33,1.7-26.65,4.99-39.55,1.58-6.57,3.59-13.02,6.02-19.35.91-2.37,1.76-4.5,2.74-6.57,1.52-3.77,3.16-7.3,5.23-11.2,7.91-15.21,18.13-29.15,30.3-41.44L1020.26,65.1c18.19-18.38,42.47-28.54,68.33-28.6,7.12,0,13.99.73,20.69,2.19,8.52,1.83,16.55,4.75,24.03,8.7,3.53,1.83,6.63,3.71,9.61,5.72,4.87,3.29,9.49,7.12,13.75,11.32l3.1,3.1,26.04,25.74,51.9,51.48,51.96,51.41,8.64,8.58,17.4,17.1,8.58,8.58,17.4,17.16,25.92,25.74,8.58,8.52,25.98,25.8,17.4,17.1,51.84,51.47,25.98,25.68,77.94,77.21,8.7,8.52,17.22,17.16,8.76,8.58,17.22,17.16,8.76,8.58,17.22,17.16,25.98,25.68,51.96,51.48,8.7,8.52,25.86,25.74,26.1,25.74,17.22,17.16,8.7,8.52,17.28,17.22,8.7,8.52,17.22,17.16,26.04,25.74,25.92,25.74,25.98,25.68,60.54,59.99,17.46,17.16,8.52,8.52,25.98,25.8,20.26,20.02,18.68,18.56,8.76,8.58,11.2,11.13c6.63,6.57,12.84,13.75,18.38,21.23,13.63,18.38,23.42,38.82,29.08,60.72,1.46,5.6,2.56,10.59,3.35,15.39.85,5.05,1.46,9.74,1.83,14.3.49,5.6.73,10.59.73,15.27Z"/>
  <path class="cls-1" d="M2163.66,1135.8c0,3.41-.06,6.75-.24,10.16-.24,5.84-.85,11.86-1.83,17.95-5.66,37.72-23,72.1-50.08,99.42l-894.67,903.01c-22.82,23-51.66,37.3-83.36,41.31-5.72.73-11.38,1.1-16.85,1.1h-.67l-.67.06h-.24c-5.41,0-11.01-.3-16.73-.97-32-3.65-61.09-17.71-84.09-40.52L87.01,1249.03c-29.02-28.66-46.73-66.69-49.89-107.09-.43-4.69-.61-8.88-.61-13.08,0-.55,0-1.22.06-1.76v-.79c.06-13.33,1.7-26.65,4.99-39.55,1.58-6.57,3.59-13.02,6.02-19.35.91-2.37,1.76-4.5,2.74-6.57,1.52-3.77,3.16-7.3,5.23-11.2,7.91-15.21,18.13-29.15,30.3-41.44L1020.26,65.1c18.19-18.38,42.47-28.54,68.33-28.6,7.12,0,13.99.73,20.69,2.19,8.52,1.83,16.55,4.75,24.03,8.7,3.53,1.83,6.63,3.71,9.61,5.72,4.87,3.29,9.49,7.12,13.75,11.32l3.1,3.1,26.04,25.74,51.9,51.48,51.96,51.41,8.64,8.58,17.4,17.1,8.58,8.58,17.4,17.16,25.92,25.74,8.58,8.52,25.98,25.8,17.4,17.1,51.84,51.47,25.98,25.68,77.94,77.21,8.7,8.52,17.22,17.16,8.76,8.58,17.22,17.16,8.76,8.58,17.22,17.16,25.98,25.68,51.96,51.48,8.7,8.52,25.86,25.74,26.1,25.74,17.22,17.16,8.7,8.52,17.28,17.22,8.7,8.52,17.22,17.16,26.04,25.74,25.92,25.74,25.98,25.68,60.54,59.99,17.46,17.16,8.52,8.52,25.98,25.8,20.26,20.02,18.68,18.56,8.76,8.58,11.2,11.13c6.63,6.57,12.84,13.75,18.38,21.23,13.63,18.38,23.42,38.82,29.08,60.72,1.46,5.6,2.56,10.59,3.35,15.39.85,5.05,1.46,9.74,1.83,14.3.49,5.6.73,10.59.73,15.27Z"/>
  <polygon class="cls-1" points="1447.76 1654.93 1417.09 1654.93 1415.93 1653.78 1426.76 1642.76 1435.59 1642.76 1435.59 1639.42 1447.76 1651.83 1447.76 1654.93"/>
  <polygon class="cls-1" points="806.14 589.29 817.76 589.29 829.69 601.46 818.31 601.46 818.31 620.56 816.49 622.39 806.14 611.86 806.14 589.29"/>
  <polygon class="cls-1" points="818.31 635.71 829.57 635.71 836.62 642.89 827.92 651.47 818.31 641.67 818.31 635.71"/>
  <polygon class="cls-1" points="849.1 589.29 841.92 596.59 834.74 589.29 849.1 589.29"/>
  <polygon class="cls-1" points="1441.37 1627.92 1447.76 1621.41 1447.76 1634.43 1441.37 1627.92"/>
  <polygon class="cls-1" points="806.14 629.26 807.9 631.09 806.14 632.85 790.99 648.25 678.43 533.55 695.34 516.39 806.14 629.26"/>
  <polygon class="cls-1" points="1447.76 589.29 1447.76 606.45 1446.54 607.66 1429.38 590.38 1430.48 589.29 1447.76 589.29"/>
  <rect class="cls-1" x="818.3" y="1383.48" width="165.66" height="21.76"/>
  <rect class="cls-1" x="818.3" y="1349.55" width="165.66" height="21.77"/>
  <rect class="cls-1" x="818.3" y="1417.41" width="165.66" height="21.77"/>
  <rect class="cls-1" x="818.3" y="1553.14" width="165.66" height="21.76"/>
  <rect class="cls-1" x="818.3" y="1519.21" width="165.66" height="21.77"/>
  <rect class="cls-1" x="818.3" y="1451.34" width="165.66" height="21.76"/>
  <rect class="cls-1" x="818.3" y="1485.27" width="165.66" height="21.77"/>
  <rect class="cls-1" x="818.3" y="1144.67" width="165.66" height="21.77"/>
  <rect class="cls-1" x="818.3" y="1178.61" width="165.66" height="21.77"/>
  <rect class="cls-1" x="818.3" y="1110.75" width="165.66" height="21.76"/>
  <rect class="cls-1" x="818.3" y="1587.07" width="165.66" height="21.77"/>
  <rect class="cls-1" x="818.3" y="1246.47" width="165.66" height="23.04"/>
  <rect class="cls-1" x="818.3" y="1281.68" width="165.66" height="21.76"/>
  <rect class="cls-1" x="818.3" y="1076.81" width="165.66" height="21.77"/>
  <rect class="cls-1" x="818.3" y="1315.61" width="165.66" height="21.77"/>
  <rect class="cls-1" x="818.3" y="1212.54" width="165.66" height="21.76"/>
  <rect class="cls-1" x="1269.93" y="1315.61" width="165.65" height="21.77"/>
  <rect class="cls-1" x="1165.02" y="1042.88" width="22.29" height="191.42"/>
  <rect class="cls-1" x="1130.56" y="1042.88" width="22.29" height="191.42"/>
  <rect class="cls-1" x="1269.93" y="1349.55" width="165.65" height="21.77"/>
  <rect class="cls-1" x="1269.93" y="1281.68" width="165.65" height="21.76"/>
  <rect class="cls-1" x="1269.93" y="1383.48" width="165.65" height="21.76"/>
  <rect class="cls-1" x="1061.65" y="1042.88" width="22.29" height="191.42"/>
  <rect class="cls-1" x="1096.11" y="1042.88" width="22.28" height="191.42"/>
  <rect class="cls-1" x="1269.93" y="1553.14" width="165.65" height="21.76"/>
  <rect class="cls-1" x="1269.9" y="1620.98" width="165.68" height="21.78"/>
  <rect class="cls-1" x="1269.93" y="1587.07" width="165.65" height="21.77"/>
  <rect class="cls-1" x="818.3" y="1621" width="165.66" height="21.77"/>
  <rect class="cls-1" x="1269.93" y="1519.21" width="165.65" height="21.77"/>
  <rect class="cls-1" x="1269.93" y="1417.41" width="165.65" height="21.77"/>
  <rect class="cls-1" x="1269.93" y="1451.34" width="165.65" height="21.76"/>
  <rect class="cls-1" x="1269.93" y="1485.27" width="165.65" height="21.77"/>
  <rect class="cls-1" x="1199.48" y="1042.88" width="22.29" height="191.42"/>
  <rect class="cls-1" x="1269.93" y="873.22" width="165.65" height="21.76"/>
  <rect class="cls-1" x="1269.93" y="1110.75" width="165.65" height="21.76"/>
  <rect class="cls-1" x="1269.93" y="1076.81" width="165.65" height="21.77"/>
  <rect class="cls-1" x="1269.93" y="1144.67" width="165.65" height="21.77"/>
  <rect class="cls-1" x="1269.93" y="1178.61" width="165.65" height="21.77"/>
  <rect class="cls-1" x="1269.93" y="1008.95" width="165.65" height="21.77"/>
  <rect class="cls-1" x="1269.93" y="941.09" width="165.65" height="21.76"/>
  <rect class="cls-1" x="1269.93" y="907.15" width="165.65" height="21.77"/>
  <rect class="cls-1" x="1269.93" y="975.01" width="165.65" height="21.77"/>
  <rect class="cls-1" x="1269.93" y="1042.88" width="165.65" height="21.76"/>
  <rect class="cls-1" x="1269.93" y="1212.54" width="165.65" height="21.76"/>
  <rect class="cls-1" x="818.3" y="1042.88" width="165.66" height="21.76"/>
  <rect class="cls-1" x="818.31" y="601.46" width="165.62" height="22.09"/>
  <rect class="cls-1" x="1269.93" y="1246.47" width="165.65" height="23.04"/>
  <rect class="cls-1" x="1269.93" y="601.45" width="165.65" height="22.08"/>
  <rect class="cls-1" x="818.3" y="805.36" width="165.66" height="21.76"/>
  <rect class="cls-1" x="818.3" y="839.29" width="165.66" height="21.76"/>
  <rect class="cls-1" x="818.3" y="873.22" width="165.66" height="21.76"/>
  <rect class="cls-1" x="818.3" y="771.42" width="165.66" height="21.77"/>
  <rect class="cls-1" x="818.3" y="737.49" width="165.66" height="21.76"/>
  <rect class="cls-1" x="818.3" y="907.15" width="165.66" height="21.77"/>
  <rect class="cls-1" x="1269.93" y="839.29" width="165.65" height="21.76"/>
  <rect class="cls-1" x="818.3" y="703.56" width="165.66" height="21.76"/>
  <rect class="cls-1" x="818.3" y="975.01" width="165.66" height="21.77"/>
  <rect class="cls-1" x="818.3" y="941.09" width="165.66" height="21.76"/>
  <rect class="cls-1" x="818.3" y="1008.95" width="165.66" height="21.77"/>
  <rect class="cls-1" x="1269.93" y="737.49" width="165.65" height="21.76"/>
  <rect class="cls-1" x="1269.93" y="771.42" width="165.65" height="21.77"/>
  <rect class="cls-1" x="1269.93" y="703.56" width="165.65" height="21.76"/>
  <rect class="cls-1" x="1269.93" y="805.36" width="165.65" height="21.76"/>
  <rect class="cls-1" x="1269.93" y="669.63" width="165.65" height="21.76"/>
  <rect class="cls-1" x="818.3" y="669.63" width="165.66" height="21.76"/>
  <polygon class="cls-1" points="983.93 635.71 983.93 657.43 818.31 657.43 818.31 641.67 827.92 651.47 836.62 642.89 829.57 635.71 983.93 635.71"/>
  <rect class="cls-1" x="1269.93" y="635.69" width="165.65" height="21.77"/>
  <rect class="cls-1" x="1027.19" y="1042.88" width="22.29" height="191.42"/>
  <path class="cls-2" d="M1446.54,607.66l-17.16-17.28,1.09-1.1h-172.74v441.43h-261.64v-441.43h-147l-7.18,7.3-7.18-7.3h-16.98l11.93,12.17h154.24v22.09h-165.62v-2.98l-1.82,1.83-10.34-10.53v17.4l1.76,1.83-1.76,1.76v1022.08h189.96v-408.45h261.64v408.45h159.35l-1.16-1.16,10.83-11.01h-156.86v-21.78h165.68v18.44l12.17,12.41v-17.4l-6.39-6.51,6.39-6.51v-1014.96l-1.22,1.22ZM983.93,1642.76h-165.62v-21.78h165.62v21.78ZM983.93,1608.81h-165.62v-21.72h165.62v21.72ZM983.93,1574.92h-165.62v-21.78h165.62v21.78ZM983.93,1540.97h-165.62v-21.78h165.62v21.78ZM983.93,1507.02h-165.62v-21.72h165.62v21.72ZM983.93,1473.13h-165.62v-21.78h165.62v21.78ZM983.93,1439.18h-165.62v-21.78h165.62v21.78ZM983.93,1405.22h-165.62v-21.72h165.62v21.72ZM983.93,1371.33h-165.62v-21.78h165.62v21.78ZM983.93,1337.38h-165.62v-21.78h165.62v21.78ZM983.93,1303.43h-165.62v-21.72h165.62v21.72ZM983.93,1269.54h-165.62v-23.06h165.62v23.06ZM983.93,1234.31h-165.62v-21.78h165.62v21.78ZM983.93,1200.36h-165.62v-21.72h165.62v21.72ZM983.93,1166.47h-165.62v-21.78h165.62v21.78ZM983.93,1132.51h-165.62v-21.78h165.62v21.78ZM983.93,1098.56h-165.62v-21.72h165.62v21.72ZM983.93,1064.67h-165.62v-21.78h165.62v21.78ZM983.93,1030.72h-165.62v-21.78h165.62v21.78ZM983.93,996.77h-165.62v-21.78h165.62v21.78ZM983.93,962.82h-165.62v-21.72h165.62v21.72ZM983.93,928.93h-165.62v-21.78h165.62v21.78ZM983.93,894.97h-165.62v-21.72h165.62v21.72ZM983.93,861.02h-165.62v-21.72h165.62v21.72ZM983.93,827.13h-165.62v-21.78h165.62v21.78ZM983.93,793.18h-165.62v-21.78h165.62v21.78ZM983.93,759.23h-165.62v-21.72h165.62v21.72ZM983.93,725.34h-165.62v-21.78h165.62v21.78ZM983.93,691.39h-165.62v-21.78h165.62v21.78ZM983.93,657.43h-165.62v-21.72h165.62v21.72ZM1015.02,1234.31h-18.92v-191.42h18.92v191.42ZM1049.46,1234.31h-22.27v-191.42h22.27v191.42ZM1083.96,1234.31h-22.33v-191.42h22.33v191.42ZM1118.4,1234.31h-22.27v-191.42h22.27v191.42ZM1152.84,1234.31h-22.27v-191.42h22.27v191.42ZM1187.28,1234.31h-22.27v-191.42h22.27v191.42ZM1221.78,1234.31h-22.33v-191.42h22.33v191.42ZM1257.74,1234.31h-23.79v-191.42h23.79v191.42ZM1269.9,635.71h165.68v21.72h-165.68v-21.72ZM1269.9,669.6h165.68v21.78h-165.68v-21.78ZM1269.9,703.55h165.68v21.78h-165.68v-21.78ZM1269.9,737.51h165.68v21.72h-165.68v-21.72ZM1269.9,771.4h165.68v21.78h-165.68v-21.78ZM1269.9,805.35h165.68v21.78h-165.68v-21.78ZM1269.9,839.3h165.68v21.72h-165.68v-21.72ZM1269.9,873.25h165.68v21.72h-165.68v-21.72ZM1269.9,907.14h165.68v21.78h-165.68v-21.78ZM1269.9,941.1h165.68v21.72h-165.68v-21.72ZM1269.9,974.99h165.68v21.78h-165.68v-21.78ZM1269.9,1008.94h165.68v21.78h-165.68v-21.78ZM1269.9,1042.89h165.68v21.78h-165.68v-21.78ZM1269.9,1076.84h165.68v21.72h-165.68v-21.72ZM1269.9,1110.73h165.68v21.78h-165.68v-21.78ZM1269.9,1144.68h165.68v21.78h-165.68v-21.78ZM1269.9,1178.64h165.68v21.72h-165.68v-21.72ZM1269.9,1212.53h165.68v21.78h-165.68v-21.78ZM1269.9,1246.48h165.68v23.06h-165.68v-23.06ZM1269.9,1281.71h165.68v21.72h-165.68v-21.72ZM1269.9,1315.6h165.68v21.78h-165.68v-21.78ZM1269.9,1349.55h165.68v21.78h-165.68v-21.78ZM1269.9,1383.5h165.68v21.72h-165.68v-21.72ZM1269.9,1417.39h165.68v21.78h-165.68v-21.78ZM1269.9,1451.34h165.68v21.78h-165.68v-21.78ZM1269.9,1485.3h165.68v21.72h-165.68v-21.72ZM1269.9,1519.19h165.68v21.78h-165.68v-21.78ZM1269.9,1553.14h165.68v21.78h-165.68v-21.78ZM1269.9,1587.09h165.68v21.72h-165.68v-21.72ZM1435.59,623.54h-165.68v-22.09h165.68v22.09Z"/>
</svg>